ISO-10303-21;
HEADER;
FILE_DESCRIPTION (( 'STEP AP214' ),
    '1' );
FILE_NAME ();
FILE_SCHEMA (( 'AUTOMOTIVE_DESIGN' ));
ENDSEC;

DATA;
#1 = ORIENTED_EDGE ( 'NONE', *, *, #663, .F. ) ;
#2 = CARTESIAN_POINT ( 'NONE',  ( -1.956862739752179836, -15.08316937539814795, 928.9528635560652674 ) ) ;
#3 =( LENGTH_UNIT ( ) NAMED_UNIT ( * ) SI_UNIT ( .MILLI., .METRE. ) );
#4 = DIRECTION ( 'NONE',  ( -1.000000000000000000, 0.000000000000000000, 0.000000000000000000 ) ) ;
#5 = CARTESIAN_POINT ( 'NONE',  ( 0.000000000000000000, -32.00014202388430107, 901.9422371214556051 ) ) ;
#6 = AXIS2_PLACEMENT_3D ( 'NONE', #289, #598, #408 ) ;
#7 = CARTESIAN_POINT ( 'NONE',  ( 0.000000000000000000, -20.00000000000000000, 928.9422371214551504 ) ) ;
#8 = ORIENTED_EDGE ( 'NONE', *, *, #428, .T. ) ;
#9 = DIRECTION ( 'NONE',  ( 0.000000000000000000, 0.000000000000000000, -1.000000000000000000 ) ) ;
#10 = ORIENTED_EDGE ( 'NONE', *, *, #412, .F. ) ;
#11 = LINE ( 'NONE', #35, #496 ) ;
#12 = CARTESIAN_POINT ( 'NONE',  ( 3.197503429653983709, -5.323380550602553107, 898.9422371214558325 ) ) ;
#13 = CARTESIAN_POINT ( 'NONE',  ( 0.000000000000000000, 0.000000000000000000, 0.000000000000000000 ) ) ;
#14 = CARTESIAN_POINT ( 'NONE',  ( 5.092221222810094261, -34.11350271176674909, 898.9422371214554914 ) ) ;
#15 = ORIENTED_EDGE ( 'NONE', *, *, #201, .F. ) ;
#16 = CARTESIAN_POINT ( 'NONE',  ( 0.000000000000000000, -7.999857976115701597, 901.9422371214556051 ) ) ;
#17 = CARTESIAN_POINT ( 'NONE',  ( 4.478268016326259371, -34.31966845129440458, 898.9422371214557188 ) ) ;
#18 = ORIENTED_EDGE ( 'NONE', *, *, #253, .T. ) ;
#19 = CARTESIAN_POINT ( 'NONE',  ( 0.000000000000000000, -7.999857976115701597, 901.9422371214556051 ) ) ;
#20 = PRODUCT ( 'TAIL 3', 'TAIL 3', '', ( #825 ) ) ;
#21 = CARTESIAN_POINT ( 'NONE',  ( 14.79099197060961224, -17.38218405763247532, 898.9422371214557188 ) ) ;
#22 = DIRECTION ( 'NONE',  ( -0.000000000000000000, -0.000000000000000000, -1.000000000000000000 ) ) ;
#23 = ADVANCED_FACE ( 'NONE', ( #593 ), #152, .F. ) ;
#24 = ORIENTED_EDGE ( 'NONE', *, *, #813, .T. ) ;
#25 = CARTESIAN_POINT ( 'NONE',  ( 8.109725464839090847, -32.61857363530646126, 898.9422371214552641 ) ) ;
#26 = CARTESIAN_POINT ( 'NONE',  ( -1.000000000000000222, -32.00014202388430107, 898.9422371214556051 ) ) ;
#27 = ADVANCED_FACE ( 'NONE', ( #651 ), #219, .F. ) ;
#28 = EDGE_LOOP ( 'NONE', ( #206, #378, #769, #307, #344, #141, #30, #435, #523, #276, #193, #65 ) ) ;
#29 = LINE ( 'NONE', #19, #789 ) ;
#30 = ORIENTED_EDGE ( 'NONE', *, *, #213, .F. ) ;
#31 = VECTOR ( 'NONE', #36, 1000.000000000000000 ) ;
#32 = CARTESIAN_POINT ( 'NONE',  ( -1.590481107580910267E-13, -5.000000000000005329, 898.9422371214551504 ) ) ;
#33 = ORIENTED_EDGE ( 'NONE', *, *, #691, .T. ) ;
#34 = AXIS2_PLACEMENT_3D ( 'NONE', #170, #372, #248 ) ;
#35 = CARTESIAN_POINT ( 'NONE',  ( 0.000000000000000000, -33.00014202388430107, 901.9422371214556051 ) ) ;
#36 = DIRECTION ( 'NONE',  ( 0.000000000000000000, -1.000000000000000000, 0.000000000000000000 ) ) ;
#37 = CARTESIAN_POINT ( 'NONE',  ( 0.000000000000000000, -7.999857976115701597, 901.9422371214556051 ) ) ;
#38 = CARTESIAN_POINT ( 'NONE',  ( 1.590481107580910267E-13, -5.000000000000005329, 898.9422371214551504 ) ) ;
#39 = CARTESIAN_POINT ( 'NONE',  ( 1.836970198721025004E-16, -20.99999999999999645, 928.9422371214551504 ) ) ;
#40 = VERTEX_POINT ( 'NONE', #288 ) ;
#41 = COLOUR_RGB ( '',0.7921568627450980005, 0.8196078431372548767, 0.9333333333333333481 ) ;
#42 = DIRECTION ( 'NONE',  ( -0.000000000000000000, -0.000000000000000000, -1.000000000000000000 ) ) ;
#43 = CARTESIAN_POINT ( 'NONE',  ( 14.99999999999995914, -18.04198016891360012, 898.9422371214552641 ) ) ;
#44 = PLANE ( 'NONE',  #590 ) ;
#45 = B_SPLINE_CURVE_WITH_KNOTS ( 'NONE', 3,
 ( #322, #709, #196, #508 ),
 .UNSPECIFIED., .F., .F.,
 ( 4, 4 ),
 ( 0.000000000000000000, 1.000000000000000000 ),
 .UNSPECIFIED. ) ;
#46 = CARTESIAN_POINT ( 'NONE',  ( -4.563205361590799924, -34.48231591887683578, 898.9422371214548093 ) ) ;
#47 = DIRECTION ( 'NONE',  ( 0.000000000000000000, 0.000000000000000000, 1.000000000000000000 ) ) ;
#48 = CARTESIAN_POINT ( 'NONE',  ( 0.000000000000000000, -35.00000000000000000, 920.4352645838112039 ) ) ;
#49 = CARTESIAN_POINT ( 'NONE',  ( -6.123233995736750012E-17, -19.00000000000000355, 928.9422371214551504 ) ) ;
#50 = DIRECTION ( 'NONE',  ( 0.000000000000000000, 0.000000000000000000, -1.000000000000000000 ) ) ;
#51 = ORIENTED_EDGE ( 'NONE', *, *, #102, .T. ) ;
#52 = CARTESIAN_POINT ( 'NONE',  ( -1.958019831086155182, -4.999999999999984013, 898.9422371214551504 ) ) ;
#53 = CARTESIAN_POINT ( 'NONE',  ( 7.889830317112446423, -32.75968422880671227, 898.9422371214548093 ) ) ;
#54 = CARTESIAN_POINT ( 'NONE',  ( 0.000000000000000000, -41.74756306451790522, 886.5481767731080254 ) ) ;
#55 = EDGE_LOOP ( 'NONE', ( #697, #159, #631, #385 ) ) ;
#56 = CARTESIAN_POINT ( 'NONE',  ( -15.18282550365364436, -18.64826191426691793, 920.8986044794737609 ) ) ;
#57 = EDGE_CURVE ( 'NONE', #154, #171, #658, .T. ) ;
#58 = CARTESIAN_POINT ( 'NONE',  ( 0.000000000000000000, -41.74756306451790522, 898.9422371214556051 ) ) ;
#59 = CARTESIAN_POINT ( 'NONE',  ( 1.956862739752179836, -15.08316937539814795, 928.9528635560652674 ) ) ;
#60 = CARTESIAN_POINT ( 'NONE',  ( 1.001111606453845893, -20.12249890180377321, 928.9422371214551504 ) ) ;
#61 = EDGE_CURVE ( 'NONE', #467, #493, #481, .T. ) ;
#62 = CARTESIAN_POINT ( 'NONE',  ( -9.917636649440723318, -10.16787826250974547, 920.6669345316428235 ) ) ;
#63 = CARTESIAN_POINT ( 'NONE',  ( 0.000000000000000000, -8.999857976115702485, 898.9422371214556051 ) ) ;
#64 =( LENGTH_UNIT ( ) NAMED_UNIT ( * ) SI_UNIT ( .MILLI., .METRE. ) );
#65 = ORIENTED_EDGE ( 'NONE', *, *, #469, .T. ) ;
#66 = MANIFOLD_SOLID_BREP ( 'Lustro1[3]', #648 ) ;
#67 = CYLINDRICAL_SURFACE ( 'NONE', #312, 1.000000000000000222 ) ;
#68 = CARTESIAN_POINT ( 'NONE',  ( 0.000000000000000000, -34.99999999999999289, 898.9422371214551504 ) ) ;
#69 = EDGE_LOOP ( 'NONE', ( #564, #736, #657 ) ) ;
#70 = CARTESIAN_POINT ( 'NONE',  ( 0.000000000000000000, -32.00014202388430107, 901.9422371214556051 ) ) ;
#71 = AXIS2_PLACEMENT_3D ( 'NONE', #799, #223, #420 ) ;
#72 = CYLINDRICAL_SURFACE ( 'NONE', #702, 1.000000000000000222 ) ;
#73 = ORIENTED_EDGE ( 'NONE', *, *, #672, .F. ) ;
#74 = EDGE_CURVE ( 'NONE', #467, #197, #479, .T. ) ;
#75 = CARTESIAN_POINT ( 'NONE',  ( 0.000000000000000000, -7.999857976115701597, 898.9422371214556051 ) ) ;
#76 = AXIS2_PLACEMENT_3D ( 'NONE', #217, #101, #655 ) ;
#77 =( GEOMETRIC_REPRESENTATION_CONTEXT ( 3 ) GLOBAL_UNCERTAINTY_ASSIGNED_CONTEXT ( ( #457 ) ) GLOBAL_UNIT_ASSIGNED_CONTEXT ( ( #64, #750, #440 ) ) REPRESENTATION_CONTEXT ( 'NONE', 'WORKASPACE' ) );
#78 = VERTEX_POINT ( 'NONE', #306 ) ;
#79 = CARTESIAN_POINT ( 'NONE',  ( 0.000000000000000000, -6.999857976115700708, 898.9422371214556051 ) ) ;
#80 = DIRECTION ( 'NONE',  ( 1.000000000000000000, 0.000000000000000000, 0.000000000000000000 ) ) ;
#81 = ORIENTED_EDGE ( 'NONE', *, *, #381, .F. ) ;
#82 = CARTESIAN_POINT ( 'NONE',  ( 0.1312647306771180244, -20.99999999999999645, 928.9422371214551504 ) ) ;
#83 = SURFACE_SIDE_STYLE ('',( #384 ) ) ;
#84 = VERTEX_POINT ( 'NONE', #183 ) ;
#85 = EDGE_CURVE ( 'NONE', #515, #293, #215, .T. ) ;
#86 = DIRECTION ( 'NONE',  ( 1.000000000000000000, 0.000000000000000000, 0.000000000000000000 ) ) ;
#87 = CARTESIAN_POINT ( 'NONE',  ( 0.000000000000000000, -31.00014202388429752, 901.9422371214556051 ) ) ;
#88 = ORIENTED_EDGE ( 'NONE', *, *, #286, .F. ) ;
#89 = ORIENTED_EDGE ( 'NONE', *, *, #61, .T. ) ;
#90 = ORIENTED_EDGE ( 'NONE', *, *, #641, .T. ) ;
#91 = VECTOR ( 'NONE', #218, 1000.000000000000000 ) ;
#92 = VECTOR ( 'NONE', #760, 1000.000000000000000 ) ;
#93 = CARTESIAN_POINT ( 'NONE',  ( 0.000000000000000000, -32.00014202388430107, 901.9422371214556051 ) ) ;
#94 = VERTEX_POINT ( 'NONE', #688 ) ;
#95 = AXIS2_PLACEMENT_3D ( 'NONE', #37, #407, #794 ) ;
#96 = CARTESIAN_POINT ( 'NONE',  ( 5.897536733345754456, -34.21604772438745101, 898.9422371214546956 ) ) ;
#97 = DIRECTION ( 'NONE',  ( 0.000000000000000000, 0.000000000000000000, -1.000000000000000000 ) ) ;
#98 = DIRECTION ( 'NONE',  ( -0.000000000000000000, -0.000000000000000000, 1.000000000000000000 ) ) ;
#99 = DIRECTION ( 'NONE',  ( 0.000000000000000000, 0.000000000000000000, -1.000000000000000000 ) ) ;
#100 = PRESENTATION_LAYER_ASSIGNMENT (  '', '', ( #669 ) ) ;
#101 = DIRECTION ( 'NONE',  ( 0.000000000000000000, 0.000000000000000000, -1.000000000000000000 ) ) ;
#102 = EDGE_CURVE ( 'NONE', #476, #493, #497, .T. ) ;
#103 = CARTESIAN_POINT ( 'NONE',  ( 0.000000000000000000, -41.74756306451790522, 898.9422371214556051 ) ) ;
#104 = CARTESIAN_POINT ( 'NONE',  ( 0.7220738156904695781, -19.27157229175382369, 928.9422371214564009 ) ) ;
#105 = B_SPLINE_CURVE_WITH_KNOTS ( 'NONE', 3,
 ( #267, #757, #692, #125 ),
 .UNSPECIFIED., .F., .F.,
 ( 4, 4 ),
 ( 0.000000000000000000, 1.000000000000000000 ),
 .UNSPECIFIED. ) ;
#106 = EDGE_LOOP ( 'NONE', ( #90, #498, #581, #33, #252, #701, #446, #51, #131, #396 ) ) ;
#107 = MECHANICAL_DESIGN_GEOMETRIC_PRESENTATION_REPRESENTATION (  '', ( #555 ), #77 ) ;
#108 = CARTESIAN_POINT ( 'NONE',  ( -15.19072563535025466, -21.35350746094777463, 920.8986044794737609 ) ) ;
#109 = CARTESIAN_POINT ( 'NONE',  ( 14.32130862293732498, -24.53258029753935432, 898.9422371214554914 ) ) ;
#110 = CARTESIAN_POINT ( 'NONE',  ( 0.7289837867656365766, -20.72262504367619584, 928.9422371214558325 ) ) ;
#111 = VERTEX_POINT ( 'NONE', #363 ) ;
#112 = ADVANCED_FACE ( 'NONE', ( #492 ), #44, .F. ) ;
#113 = DIRECTION ( 'NONE',  ( 1.000000000000000000, 0.000000000000000000, 0.000000000000000000 ) ) ;
#114 = CARTESIAN_POINT ( 'NONE',  ( 0.000000000000000000, -20.99999999999999645, 928.9422371214551504 ) ) ;
#115 = CARTESIAN_POINT ( 'NONE',  ( 0.7220738156904695781, -19.27157229175382369, 928.9422371214564009 ) ) ;
#116 = EDGE_CURVE ( 'NONE', #710, #392, #122, .T. ) ;
#117 = DIRECTION ( 'NONE',  ( -1.000000000000000000, 0.000000000000000000, 0.000000000000000000 ) ) ;
#118 = CARTESIAN_POINT ( 'NONE',  ( -1.001111606453845893, -20.12249890180377321, 928.9422371214551504 ) ) ;
#119 = CIRCLE ( 'NONE', #325, 0.9999999999999974465 ) ;
#120 = LINE ( 'NONE', #390, #186 ) ;
#121 = AXIS2_PLACEMENT_3D ( 'NONE', #13, #320, #199 ) ;
#122 = LINE ( 'NONE', #298, #676 ) ;
#123 = EDGE_LOOP ( 'NONE', ( #729, #486, #150 ) ) ;
#124 = CARTESIAN_POINT ( 'NONE',  ( -4.656618802416974567, -6.118124546409037023, 920.4931820707691941 ) ) ;
#125 = CARTESIAN_POINT ( 'NONE',  ( 0.000000000000000000, -20.99999999999999645, 928.9422371214551504 ) ) ;
#126 = CARTESIAN_POINT ( 'NONE',  ( 1.302430707099744955, -35.00000000000000711, 898.9422371214558325 ) ) ;
#127 = ORIENTED_EDGE ( 'NONE', *, *, #723, .F. ) ;
#128 = CARTESIAN_POINT ( 'NONE',  ( -3.525081422962434541, -17.83836050585593824, 929.0166221637283570 ) ) ;
#129 = SHAPE_DEFINITION_REPRESENTATION ( #574, #712 ) ;
#130 = CARTESIAN_POINT ( 'NONE',  ( -1.000000000000000000, -7.999857976115701597, 898.9422371214556051 ) ) ;
#131 = ORIENTED_EDGE ( 'NONE', *, *, #286, .T. ) ;
#132 = EDGE_CURVE ( 'NONE', #476, #265, #303, .T. ) ;
#133 = CARTESIAN_POINT ( 'NONE',  ( 0.000000000000000000, -32.00014202388430107, 901.9422371214556051 ) ) ;
#134 = AXIS2_PLACEMENT_3D ( 'NONE', #734, #285, #273 ) ;
#135 = CARTESIAN_POINT ( 'NONE',  ( 2.586516758967388085, -34.83217190741220293, 898.9422371214558325 ) ) ;
#136 = AXIS2_PLACEMENT_3D ( 'NONE', #704, #187, #315 ) ;
#137 = ORIENTED_EDGE ( 'NONE', *, *, #236, .F. ) ;
#138 = CARTESIAN_POINT ( 'NONE',  ( 0.000000000000000000, -34.99999999999999289, 898.9422371214551504 ) ) ;
#139 = AXIS2_PLACEMENT_3D ( 'NONE', #761, #188, #251 ) ;
#140 =( LENGTH_UNIT ( ) NAMED_UNIT ( * ) SI_UNIT ( .MILLI., .METRE. ) );
#141 = ORIENTED_EDGE ( 'NONE', *, *, #281, .T. ) ;
#142 = FILL_AREA_STYLE ('',( #335 ) ) ;
#143 = UNCERTAINTY_MEASURE_WITH_UNIT (LENGTH_MEASURE( 1.000000000000000082E-05 ), #140, 'distance_accuracy_value', 'NONE');
#144 = ORIENTED_EDGE ( 'NONE', *, *, #586, .T. ) ;
#145 = EDGE_CURVE ( 'NONE', #782, #653, #491, .T. ) ;
#146 = CARTESIAN_POINT ( 'NONE',  ( 0.000000000000000000, -8.999857976115702485, 901.9422371214556051 ) ) ;
#147 = CARTESIAN_POINT ( 'NONE',  ( 1.579664142769023797E-13, -5.000000000000000888, 898.9422371214551504 ) ) ;
#148 = CARTESIAN_POINT ( 'NONE',  ( -5.882088232982356502, -5.776338636559586348, 898.9422371214557188 ) ) ;
#149 = CIRCLE ( 'NONE', #221, 1.000000000000000222 ) ;
#150 = ORIENTED_EDGE ( 'NONE', *, *, #57, .T. ) ;
#151 = CARTESIAN_POINT ( 'NONE',  ( 14.95660246268714388, -21.39020144118368805, 898.9422371214553777 ) ) ;
#152 = CYLINDRICAL_SURFACE ( 'NONE', #95, 1.000000000000000000 ) ;
#153 = CARTESIAN_POINT ( 'NONE',  ( 0.000000000000000000, -31.00014202388429752, 898.9422371214556051 ) ) ;
#154 = VERTEX_POINT ( 'NONE', #547 ) ;
#155 = CARTESIAN_POINT ( 'NONE',  ( -14.99999999999995914, -18.04198016891360012, 898.9422371214552641 ) ) ;
#156 = VERTEX_POINT ( 'NONE', #380 ) ;
#157 = CARTESIAN_POINT ( 'NONE',  ( 0.000000000000000000, -32.00014202388430107, 901.9422371214556051 ) ) ;
#158 = CIRCLE ( 'NONE', #737, 1.000000000000000222 ) ;
#159 = ORIENTED_EDGE ( 'NONE', *, *, #795, .T. ) ;
#160 = AXIS2_PLACEMENT_3D ( 'NONE', #802, #347, #227 ) ;
#161 = EDGE_CURVE ( 'NONE', #653, #782, #194, .T. ) ;
#162 = CARTESIAN_POINT ( 'NONE',  ( 0.000000000000000000, -19.00000000000000355, 928.9422371214551504 ) ) ;
#163 = DIRECTION ( 'NONE',  ( 1.000000000000000000, 0.000000000000000000, 0.000000000000000000 ) ) ;
#164 = CARTESIAN_POINT ( 'NONE',  ( 1.000000000000000222, -32.00014202388430107, 901.9422371214556051 ) ) ;
#165 = ADVANCED_FACE ( 'NONE', ( #337 ), #67, .F. ) ;
#166 = LINE ( 'NONE', #424, #779 ) ;
#167 = CARTESIAN_POINT ( 'NONE',  ( 13.41726370771904442, -26.75478950424096780, 898.9422371214557188 ) ) ;
#168 = CARTESIAN_POINT ( 'NONE',  ( 3.068303949878528503, -23.84812317388051994, 928.9847428598974375 ) ) ;
#169 = CYLINDRICAL_SURFACE ( 'NONE', #764, 1.000000000000000000 ) ;
#170 = CARTESIAN_POINT ( 'NONE',  ( 0.000000000000000000, -32.00014202388430107, 898.9422371214556051 ) ) ;
#171 = VERTEX_POINT ( 'NONE', #87 ) ;
#172 = CIRCLE ( 'NONE', #6, 1.000000000000000222 ) ;
#173 = CARTESIAN_POINT ( 'NONE',  ( 7.439560805254446407, -33.02503764990401436, 898.9422371214552641 ) ) ;
#174 = ADVANCED_FACE ( 'NONE', ( #461 ), #334, .T. ) ;
#175 = DIRECTION ( 'NONE',  ( -0.000000000000000000, -0.000000000000000000, 1.000000000000000000 ) ) ;
#176 = ORIENTED_EDGE ( 'NONE', *, *, #290, .T. ) ;
#177 = DIRECTION ( 'NONE',  ( -0.000000000000000000, -0.000000000000000000, -1.000000000000000000 ) ) ;
#178 = CARTESIAN_POINT ( 'NONE',  ( 9.654302152671274229, -8.491198121099063911, 898.9422371214554914 ) ) ;
#179 = CARTESIAN_POINT ( 'NONE',  ( 8.109725464839090847, -32.61857363530646126, 898.9422371214552641 ) ) ;
#180 = ORIENTED_EDGE ( 'NONE', *, *, #787, .T. ) ;
#181 = CARTESIAN_POINT ( 'NONE',  ( 8.347110645784288963, -7.535827009061852877, 898.9422371214554914 ) ) ;
#182 = FACE_OUTER_BOUND ( 'NONE', #533, .T. ) ;
#183 = CARTESIAN_POINT ( 'NONE',  ( 0.000000000000000000, -6.999857976115701597, 901.9422371214556051 ) ) ;
#184 = ORIENTED_EDGE ( 'NONE', *, *, #436, .T. ) ;
#185 = CARTESIAN_POINT ( 'NONE',  ( 6.123233995736750012E-17, -19.00000000000000355, 928.9422371214551504 ) ) ;
#186 = VECTOR ( 'NONE', #9, 1000.000000000000000 ) ;
#187 = DIRECTION ( 'NONE',  ( 1.000000000000000000, 0.000000000000000000, 0.000000000000000000 ) ) ;
#188 = DIRECTION ( 'NONE',  ( 0.000000000000000000, 0.000000000000000000, 1.000000000000000000 ) ) ;
#189 = EDGE_LOOP ( 'NONE', ( #18, #373, #24, #1, #144, #537, #249, #73, #414, #758, #778, #316 ) ) ;
#190 = VECTOR ( 'NONE', #780, 1000.000000000000000 ) ;
#191 = CARTESIAN_POINT ( 'NONE',  ( -1.356402217125385778, -34.99999999999999289, 920.4352645838112039 ) ) ;
#192 = CARTESIAN_POINT ( 'NONE',  ( 0.000000000000000000, -6.999857976115700708, 898.9422371214556051 ) ) ;
#193 = ORIENTED_EDGE ( 'NONE', *, *, #343, .F. ) ;
#194 = B_SPLINE_CURVE_WITH_KNOTS ( 'NONE', 3,
 ( #550, #816, #244, #115, #377, #615, #60, #642, #634, #624, #82, #329 ),
 .UNSPECIFIED., .F., .F.,
 ( 4, 1, 1, 1, 2, 1, 1, 1, 4 ),
 ( 0.000000000000000000, 0.1246514147267963474, 0.2493028294535926948, 0.3739542441803891948, 0.4986056589071854450, 0.6239542441803891393, 0.7493028294535926115, 0.8746514147267963057, 1.000000000000000000 ),
 .UNSPECIFIED. ) ;
#195 = EDGE_CURVE ( 'NONE', #519, #154, #158, .T. ) ;
#196 = CARTESIAN_POINT ( 'NONE',  ( 0.000000000000000000, -4.999999999999997335, 920.4352645838112039 ) ) ;
#197 = VERTEX_POINT ( 'NONE', #608 ) ;
#198 = CARTESIAN_POINT ( 'NONE',  ( 12.61999004604598440, -28.14643878240148211, 898.9422371214557188 ) ) ;
#199 = DIRECTION ( 'NONE',  ( 1.000000000000000000, 0.000000000000000000, 0.000000000000000000 ) ) ;
#200 = CARTESIAN_POINT ( 'NONE',  ( 7.439560805254446407, -33.02503764990401436, 898.9422371214552641 ) ) ;
#201 = EDGE_CURVE ( 'NONE', #392, #740, #477, .T. ) ;
#202 = EDGE_LOOP ( 'NONE', ( #473, #444, #646, #137 ) ) ;
#203 = CARTESIAN_POINT ( 'NONE',  ( 1.902453216354468504E-11, -1.992249451620040301E-11, 898.9422371214556051 ) ) ;
#204 = EDGE_CURVE ( 'NONE', #442, #817, #437, .T. ) ;
#205 = CARTESIAN_POINT ( 'NONE',  ( 0.000000000000000000, -7.999857976115701597, 901.9422371214556051 ) ) ;
#206 = ORIENTED_EDGE ( 'NONE', *, *, #132, .F. ) ;
#207 = CARTESIAN_POINT ( 'NONE',  ( 0.000000000000000000, -4.999999999999997335, 920.4352645838112039 ) ) ;
#208 = CARTESIAN_POINT ( 'NONE',  ( -7.666315394987087473, -32.89531148648426040, 898.9422371214556051 ) ) ;
#209 = ORIENTED_EDGE ( 'NONE', *, *, #195, .F. ) ;
#210 = CYLINDRICAL_SURFACE ( 'NONE', #656, 1.000000000000000222 ) ;
#211 = VECTOR ( 'NONE', #777, 1000.000000000000000 ) ;
#212 = EDGE_LOOP ( 'NONE', ( #720, #786, #617, #773 ) ) ;
#213 = EDGE_CURVE ( 'NONE', #84, #351, #774, .T. ) ;
#214 = AXIS2_PLACEMENT_3D ( 'NONE', #75, #570, #632 ) ;
#215 = CIRCLE ( 'NONE', #34, 1.000000000000000222 ) ;
#216 = ORIENTED_EDGE ( 'NONE', *, *, #266, .T. ) ;
#217 = CARTESIAN_POINT ( 'NONE',  ( 0.000000000000000000, -7.999857976115701597, 901.9422371214556051 ) ) ;
#218 = DIRECTION ( 'NONE',  ( 0.000000000000000000, -1.000000000000000000, 0.000000000000000000 ) ) ;
#219 = CYLINDRICAL_SURFACE ( 'NONE', #160, 1.000000000000000000 ) ;
#220 = ORIENTED_EDGE ( 'NONE', *, *, #253, .F. ) ;
#221 = AXIS2_PLACEMENT_3D ( 'NONE', #278, #791, #470 ) ;
#222 = VECTOR ( 'NONE', #255, 1000.000000000000000 ) ;
#223 = DIRECTION ( 'NONE',  ( 0.000000000000000000, 0.000000000000000000, -1.000000000000000000 ) ) ;
#224 = CARTESIAN_POINT ( 'NONE',  ( 0.000000000000000000, -25.14483508703432335, 928.9422371214550367 ) ) ;
#225 = AXIS2_PLACEMENT_3D ( 'NONE', #752, #177, #113 ) ;
#226 = ADVANCED_FACE ( 'NONE', ( #447 ), #389, .F. ) ;
#227 = DIRECTION ( 'NONE',  ( 1.000000000000000000, 0.000000000000000000, 0.000000000000000000 ) ) ;
#228 = VECTOR ( 'NONE', #422, 1000.000000000000000 ) ;
#229 = DIRECTION ( 'NONE',  ( 1.000000000000000000, 0.000000000000000000, 0.000000000000000000 ) ) ;
#230 = CARTESIAN_POINT ( 'NONE',  ( 14.54197759714866578, -23.76314859376186561, 898.9422371214554914 ) ) ;
#231 = CARTESIAN_POINT ( 'NONE',  ( 9.917636649440723318, -10.16787826250974547, 920.6669345316428235 ) ) ;
#232 = B_SPLINE_CURVE_WITH_KNOTS ( 'NONE', 3,
 ( #32, #592, #148, #522, #527, #155, #349, #475, #785, #660, #518 ),
 .UNSPECIFIED., .F., .F.,
 ( 4, 1, 1, 1, 2, 1, 1, 4 ),
 ( 0.000000000000000000, 0.1246514147267963474, 0.2493028294535926948, 0.3739542441803891948, 0.4986056589071853895, 0.6239542441803891393, 0.7493028294535926115, 0.8177551588539444527 ),
 .UNSPECIFIED. ) ;
#233 = CARTESIAN_POINT ( 'NONE',  ( 0.000000000000000000, -19.66666666666666785, 928.9422371214551504 ) ) ;
#234 = ORIENTED_EDGE ( 'NONE', *, *, #161, .F. ) ;
#235 = CARTESIAN_POINT ( 'NONE',  ( -0.1312647306771180244, -20.99999999999999645, 928.9422371214551504 ) ) ;
#236 = EDGE_CURVE ( 'NONE', #270, #351, #394, .T. ) ;
#237 = CARTESIAN_POINT ( 'NONE',  ( -8.109725464839090847, -32.61857363530646126, 898.9422371214552641 ) ) ;
#238 = CARTESIAN_POINT ( 'NONE',  ( 1.001111606453845893, -20.12249890180377321, 928.9422371214551504 ) ) ;
#239 = DIRECTION ( 'NONE',  ( 1.000000000000000000, 0.000000000000000000, 0.000000000000000000 ) ) ;
#240 = CARTESIAN_POINT ( 'NONE',  ( -1.902453216354468504E-11, -1.992249451620040301E-11, 898.9422371214556051 ) ) ;
#241 = CARTESIAN_POINT ( 'NONE',  ( -0.3909752185804230562, -19.05167547587099364, 928.9422371214544683 ) ) ;
#242 = VECTOR ( 'NONE', #375, 1000.000000000000000 ) ;
#243 = CARTESIAN_POINT ( 'NONE',  ( 0.000000000000000000, -35.00000000000000000, 920.4352645838112039 ) ) ;
#244 = CARTESIAN_POINT ( 'NONE',  ( 0.3909752185804230562, -19.05167547587099364, 928.9422371214544683 ) ) ;
#245 = ORIENTED_EDGE ( 'NONE', *, *, #85, .F. ) ;
#246 = CARTESIAN_POINT ( 'NONE',  ( -0.9448628784508524836, -19.60073171233605649, 928.9422371214550367 ) ) ;
#247 = CARTESIAN_POINT ( 'NONE',  ( 1.356402217125385778, -34.99999999999999289, 920.4352645838112039 ) ) ;
#248 = DIRECTION ( 'NONE',  ( 1.000000000000000000, 0.000000000000000000, 0.000000000000000000 ) ) ;
#249 = ORIENTED_EDGE ( 'NONE', *, *, #567, .T. ) ;
#250 = DIRECTION ( 'NONE',  ( 0.000000000000000000, 0.000000000000000000, -1.000000000000000000 ) ) ;
#251 = DIRECTION ( 'NONE',  ( -1.000000000000000000, 0.000000000000000000, 0.000000000000000000 ) ) ;
#252 = ORIENTED_EDGE ( 'NONE', *, *, #718, .F. ) ;
#253 = EDGE_CURVE ( 'NONE', #442, #519, #11, .T. ) ;
#254 = CARTESIAN_POINT ( 'NONE',  ( -0.3943229678930657567, -20.94765814687127659, 928.9422371214543546 ) ) ;
#255 = DIRECTION ( 'NONE',  ( 0.000000000000000000, -1.000000000000000000, 0.000000000000000000 ) ) ;
#256 = PLANE ( 'NONE',  #566 ) ;
#257 = DIRECTION ( 'NONE',  ( 0.000000000000000000, 0.000000000000000000, -1.000000000000000000 ) ) ;
#258 = EDGE_CURVE ( 'NONE', #359, #270, #474, .T. ) ;
#259 = EDGE_LOOP ( 'NONE', ( #797, #471, #552, #455 ) ) ;
#260 = CARTESIAN_POINT ( 'NONE',  ( 7.843037456145339092, -7.203030355801073981, 898.9422371214554914 ) ) ;
#261 = CARTESIAN_POINT ( 'NONE',  ( 0.000000000000000000, -31.00014202388429752, 901.9422371214556051 ) ) ;
#262 = ORIENTED_EDGE ( 'NONE', *, *, #356, .F. ) ;
#263 = CARTESIAN_POINT ( 'NONE',  ( 3.976080611683860511, -5.514388178862460244, 898.9422371214557188 ) ) ;
#264 = CARTESIAN_POINT ( 'NONE',  ( 0.000000000000000000, -31.00014202388429752, 901.9422371214556051 ) ) ;
#265 = VERTEX_POINT ( 'NONE', #659 ) ;
#266 = EDGE_CURVE ( 'NONE', #94, #710, #430, .T. ) ;
#267 = CARTESIAN_POINT ( 'NONE',  ( 0.000000000000000000, -34.99999999999999289, 898.9422371214551504 ) ) ;
#268 = AXIS2_PLACEMENT_3D ( 'NONE', #563, #22, #699 ) ;
#269 = DIRECTION ( 'NONE',  ( -0.000000000000000000, -0.000000000000000000, 1.000000000000000000 ) ) ;
#270 = VERTEX_POINT ( 'NONE', #423 ) ;
#271 = B_SPLINE_SURFACE_WITH_KNOTS ( 'NONE', 3, 3, ( 
 ( #707, #397, #711, #49 ),
 ( #302, #313, #603, #416 ),
 ( #805, #613, #59, #429 ),
 ( #292, #231, #433, #104 ),
 ( #815, #484, #540, #301 ),
 ( #43, #376, #495, #677 ),
 ( #311, #661, #366, #238 ),
 ( #749, #554, #820, #665 ),
 ( #297, #743, #168, #110 ),
 ( #96, #754, #425, #480 ),
 ( #800, #247, #605, #670 ),
 ( #358, #48, #596, #39 ) ),
 .UNSPECIFIED., .F., .F., .F.,
 ( 4, 1, 1, 1, 2, 1, 1, 1, 4 ),
 ( 4, 4 ),
 ( 0.000000000000000000, 0.1246514147267963474, 0.2493028294535926948, 0.3739542441803891948, 0.4986056589071854450, 0.6239542441803891393, 0.7493028294535926115, 0.8746514147267963057, 1.000000000000000000 ),
 ( 0.000000000000000000, 1.000000000000000000 ),
 .UNSPECIFIED. ) ;
#272 = PRESENTATION_LAYER_ASSIGNMENT (  '', '', ( #555 ) ) ;
#273 = DIRECTION ( 'NONE',  ( 1.000000000000000000, 0.000000000000000000, -0.000000000000000000 ) ) ;
#274 = DIRECTION ( 'NONE',  ( 1.000000000000000000, 0.000000000000000000, 0.000000000000000000 ) ) ;
#275 = ORIENTED_EDGE ( 'NONE', *, *, #500, .T. ) ;
#276 = ORIENTED_EDGE ( 'NONE', *, *, #628, .T. ) ;
#277 = DIRECTION ( 'NONE',  ( 0.000000000000000000, 0.000000000000000000, -1.000000000000000000 ) ) ;
#278 = CARTESIAN_POINT ( 'NONE',  ( 0.000000000000000000, -32.00014202388430107, 901.9422371214556051 ) ) ;
#279 = VECTOR ( 'NONE', #269, 1000.000000000000000 ) ;
#280 = FILL_AREA_STYLE_COLOUR ( '', #415 ) ;
#281 = EDGE_CURVE ( 'NONE', #560, #351, #727, .T. ) ;
#282 = CARTESIAN_POINT ( 'NONE',  ( 1.000000000000000222, -32.00014202388430107, 901.9422371214556051 ) ) ;
#283 = AXIS2_PLACEMENT_3D ( 'NONE', #203, #456, #324 ) ;
#284 = ORIENTED_EDGE ( 'NONE', *, *, #381, .T. ) ;
#285 = DIRECTION ( 'NONE',  ( 0.000000000000000000, 0.000000000000000000, 1.000000000000000000 ) ) ;
#286 = EDGE_CURVE ( 'NONE', #493, #156, #172, .T. ) ;
#287 = DIRECTION ( 'NONE',  ( 0.000000000000000000, 0.000000000000000000, -1.000000000000000000 ) ) ;
#288 = CARTESIAN_POINT ( 'NONE',  ( 0.000000000000000000, -20.99999999999999645, 928.9422371214551504 ) ) ;
#289 = CARTESIAN_POINT ( 'NONE',  ( 0.000000000000000000, -32.00014202388430107, 898.9422371214556051 ) ) ;
#290 = EDGE_CURVE ( 'NONE', #111, #817, #524, .T. ) ;
#291 = LINE ( 'NONE', #746, #443 ) ;
#292 = CARTESIAN_POINT ( 'NONE',  ( 10.88400732761273204, -9.115992672387053020, 898.9422371214552641 ) ) ;
#293 = VERTEX_POINT ( 'NONE', #153 ) ;
#294 = AXIS2_PLACEMENT_3D ( 'NONE', #365, #47, #678 ) ;
#295 = CARTESIAN_POINT ( 'NONE',  ( 0.000000000000000000, -32.00014202388430107, 898.9422371214556051 ) ) ;
#296 = APPLICATION_CONTEXT ( 'automotive_design' ) ;
#297 = CARTESIAN_POINT ( 'NONE',  ( 10.88195750273153450, -30.88195750273143858, 898.9422371214550367 ) ) ;
#298 = CARTESIAN_POINT ( 'NONE',  ( -1.000000000000000000, -7.999857976115701597, 901.9422371214556051 ) ) ;
#299 = DIRECTION ( 'NONE',  ( 0.000000000000000000, 0.000000000000000000, 1.000000000000000000 ) ) ;
#300 = PLANE ( 'NONE',  #71 ) ;
#301 = CARTESIAN_POINT ( 'NONE',  ( 0.9448628784508524836, -19.60073171233605649, 928.9422371214550367 ) ) ;
#302 = CARTESIAN_POINT ( 'NONE',  ( 1.958019831086155182, -4.999999999999984013, 898.9422371214551504 ) ) ;
#303 = LINE ( 'NONE', #559, #419 ) ;
#304 = CARTESIAN_POINT ( 'NONE',  ( -14.99999999999998579, -21.96897096034944141, 898.9422371214553777 ) ) ;
#305 = PLANE ( 'NONE',  #673 ) ;
#306 = CARTESIAN_POINT ( 'NONE',  ( 0.000000000000000000, -19.00000000000000355, 928.9422371214551504 ) ) ;
#307 = ORIENTED_EDGE ( 'NONE', *, *, #145, .T. ) ;
#308 = AXIS2_PLACEMENT_3D ( 'NONE', #295, #42, #229 ) ;
#309 = CARTESIAN_POINT ( 'NONE',  ( -14.04830962165757846, -24.64371036480938670, 920.8406869925155434 ) ) ;
#310 = CARTESIAN_POINT ( 'NONE',  ( 0.8028544484310381479, -5.000000000000001776, 898.9422371214557188 ) ) ;
#311 = CARTESIAN_POINT ( 'NONE',  ( 14.99999999999998579, -21.96897096034944141, 898.9422371214553777 ) ) ;
#312 = AXIS2_PLACEMENT_3D ( 'NONE', #5, #257, #645 ) ;
#313 = CARTESIAN_POINT ( 'NONE',  ( 1.348858105861809209, -4.999999999999985789, 920.4352645838112039 ) ) ;
#314 = CARTESIAN_POINT ( 'NONE',  ( 8.678874775059583158, -7.764548018639426452, 898.9422371214557188 ) ) ;
#315 = DIRECTION ( 'NONE',  ( 0.000000000000000000, 0.000000000000000000, -1.000000000000000000 ) ) ;
#316 = ORIENTED_EDGE ( 'NONE', *, *, #204, .F. ) ;
#317 = CARTESIAN_POINT ( 'NONE',  ( -0.1305346554128009595, -19.00000000000000355, 928.9422371214551504 ) ) ;
#318 = EDGE_CURVE ( 'NONE', #716, #511, #741, .T. ) ;
#319 = CARTESIAN_POINT ( 'NONE',  ( 0.000000000000000000, -41.74756306451790522, 898.9422371214556051 ) ) ;
#320 = DIRECTION ( 'NONE',  ( 0.000000000000000000, 0.000000000000000000, 1.000000000000000000 ) ) ;
#321 = DIRECTION ( 'NONE',  ( 0.000000000000000000, 0.000000000000000000, -1.000000000000000000 ) ) ;
#322 = CARTESIAN_POINT ( 'NONE',  ( 0.000000000000000000, -19.00000000000000355, 928.9422371214551504 ) ) ;
#323 = ORIENTED_EDGE ( 'NONE', *, *, #663, .T. ) ;
#324 = DIRECTION ( 'NONE',  ( 1.000000000000000000, 0.000000000000000000, -0.000000000000000000 ) ) ;
#325 = AXIS2_PLACEMENT_3D ( 'NONE', #7, #696, #705 ) ;
#326 = DIRECTION ( 'NONE',  ( 0.000000000000000000, 0.000000000000000000, 1.000000000000000000 ) ) ;
#327 = ORIENTED_EDGE ( 'NONE', *, *, #599, .F. ) ;
#328 = VECTOR ( 'NONE', #357, 1000.000000000000000 ) ;
#329 = CARTESIAN_POINT ( 'NONE',  ( 0.000000000000000000, -20.99999999999999645, 928.9422371214551504 ) ) ;
#330 =( NAMED_UNIT ( * ) PLANE_ANGLE_UNIT ( ) SI_UNIT ( $, .RADIAN. ) );
#331 = VERTEX_POINT ( 'NONE', #643 ) ;
#332 = CARTESIAN_POINT ( 'NONE',  ( 8.784544290697944291, -32.18446836521420096, 898.9422371214556051 ) ) ;
#333 = CARTESIAN_POINT ( 'NONE',  ( 0.000000000000000000, -20.00000000000000000, 928.9422371214551504 ) ) ;
#334 = B_SPLINE_SURFACE_WITH_KNOTS ( 'NONE', 3, 3, ( 
 ( #147, #713, #402, #185 ),
 ( #52, #675, #557, #317 ),
 ( #427, #124, #2, #241 ),
 ( #611, #62, #823, #494 ),
 ( #759, #766, #128, #246 ),
 ( #544, #56, #619, #386 ),
 ( #304, #108, #685, #118 ),
 ( #506, #309, #809, #374 ),
 ( #553, #561, #488, #745 ),
 ( #690, #680, #432, #254 ),
 ( #818, #191, #382, #235 ),
 ( #621, #445, #627, #369 ) ),
 .UNSPECIFIED., .F., .F., .F.,
 ( 4, 1, 1, 1, 2, 1, 1, 1, 4 ),
 ( 4, 4 ),
 ( 0.000000000000000000, 0.1246514147267963474, 0.2493028294535926948, 0.3739542441803891948, 0.4986056589071854450, 0.6239542441803891393, 0.7493028294535926115, 0.8746514147267963057, 1.000000000000000000 ),
 ( 0.000000000000000000, 1.000000000000000000 ),
 .UNSPECIFIED. ) ;
#335 = FILL_AREA_STYLE_COLOUR ( '', #41 ) ;
#336 = ORIENTED_EDGE ( 'NONE', *, *, #459, .F. ) ;
#337 = FACE_OUTER_BOUND ( 'NONE', #755, .T. ) ;
#338 = CARTESIAN_POINT ( 'NONE',  ( 14.18212505863339601, -15.04751423622681017, 898.9422371214556051 ) ) ;
#339 = EDGE_LOOP ( 'NONE', ( #706, #388, #726, #127, #262, #662 ) ) ;
#340 = CARTESIAN_POINT ( 'NONE',  ( 9.420001939809852232, -31.70045123924922947, 898.9422371214558325 ) ) ;
#341 = MANIFOLD_SOLID_BREP ( 'Zapas-TAIL NEW SERVO 2-6', #768 ) ;
#342 = CARTESIAN_POINT ( 'NONE',  ( 0.000000000000000000, -14.85516491296566954, 928.9422371214550367 ) ) ;
#343 = EDGE_CURVE ( 'NONE', #197, #156, #580, .T. ) ;
#344 = ORIENTED_EDGE ( 'NONE', *, *, #371, .T. ) ;
#345 = LINE ( 'NONE', #649, #91 ) ;
#346 = EDGE_CURVE ( 'NONE', #807, #392, #601, .T. ) ;
#347 = DIRECTION ( 'NONE',  ( 0.000000000000000000, 0.000000000000000000, -1.000000000000000000 ) ) ;
#348 = CARTESIAN_POINT ( 'NONE',  ( 0.000000000000000000, -7.999857976115701597, 901.9422371214556051 ) ) ;
#349 = CARTESIAN_POINT ( 'NONE',  ( -14.99999999999998579, -21.96897096034944141, 898.9422371214553777 ) ) ;
#350 = VECTOR ( 'NONE', #98, 1000.000000000000000 ) ;
#351 = VERTEX_POINT ( 'NONE', #192 ) ;
#352 = AXIS2_PLACEMENT_3D ( 'NONE', #682, #99, #811 ) ;
#353 = ADVANCED_FACE ( 'NONE', ( #568 ), #454, .T. ) ;
#354 = CARTESIAN_POINT ( 'NONE',  ( 0.000000000000000000, -33.00014202388430107, 898.9422371214556051 ) ) ;
#355 = ORIENTED_EDGE ( 'NONE', *, *, #406, .T. ) ;
#356 = EDGE_CURVE ( 'NONE', #331, #812, #801, .T. ) ;
#357 = DIRECTION ( 'NONE',  ( 0.000000000000000000, 0.000000000000000000, -1.000000000000000000 ) ) ;
#358 = CARTESIAN_POINT ( 'NONE',  ( 2.248972592686743359E-15, -35.00000000000000000, 898.9422371214551504 ) ) ;
#359 = VERTEX_POINT ( 'NONE', #514 ) ;
#360 = DIRECTION ( 'NONE',  ( -0.000000000000000000, -0.000000000000000000, 1.000000000000000000 ) ) ;
#361 = DIRECTION ( 'NONE',  ( 1.000000000000000000, 0.000000000000000000, 0.000000000000000000 ) ) ;
#362 = PLANE ( 'NONE',  #136 ) ;
#363 = CARTESIAN_POINT ( 'NONE',  ( -7.439560805254446407, -33.02503764990401436, 898.9422371214552641 ) ) ;
#364 = AXIS2_PLACEMENT_3D ( 'NONE', #348, #588, #86 ) ;
#365 = CARTESIAN_POINT ( 'NONE',  ( 0.000000000000000000, -7.999857976115701597, 898.9422371214556051 ) ) ;
#366 = CARTESIAN_POINT ( 'NONE',  ( 3.569348995000031444, -20.73795677880794486, 929.0272485983388151 ) ) ;
#367 = B_SPLINE_CURVE_WITH_KNOTS ( 'NONE', 3,
 ( #516, #342, #207, #460 ),
 .UNSPECIFIED., .F., .F.,
 ( 4, 4 ),
 ( 0.000000000000000000, 1.000000000000000000 ),
 .UNSPECIFIED. ) ;
#368 = EDGE_LOOP ( 'NONE', ( #452, #689, #679, #693 ) ) ;
#369 = CARTESIAN_POINT ( 'NONE',  ( -1.836970198721025004E-16, -20.99999999999999645, 928.9422371214551504 ) ) ;
#370 = CARTESIAN_POINT ( 'NONE',  ( 7.666372098678651881, -32.89527907146256069, 898.9422371214548093 ) ) ;
#371 = EDGE_CURVE ( 'NONE', #653, #560, #45, .T. ) ;
#372 = DIRECTION ( 'NONE',  ( -0.000000000000000000, -0.000000000000000000, -1.000000000000000000 ) ) ;
#373 = ORIENTED_EDGE ( 'NONE', *, *, #464, .F. ) ;
#374 = CARTESIAN_POINT ( 'NONE',  ( -0.9510763603619939444, -20.38600559982993587, 928.9422371214544683 ) ) ;
#375 = DIRECTION ( 'NONE',  ( 0.000000000000000000, -1.000000000000000000, 0.000000000000000000 ) ) ;
#376 = CARTESIAN_POINT ( 'NONE',  ( 15.18282550365364436, -18.64826191426691793, 920.8986044794737609 ) ) ;
#377 = CARTESIAN_POINT ( 'NONE',  ( 0.9448628784508524836, -19.60073171233605649, 928.9422371214550367 ) ) ;
#378 = ORIENTED_EDGE ( 'NONE', *, *, #541, .T. ) ;
#379 = CARTESIAN_POINT ( 'NONE',  ( 0.000000000000000000, -41.74756306451790522, 898.9422371214556051 ) ) ;
#380 = CARTESIAN_POINT ( 'NONE',  ( 0.000000000000000000, -31.00014202388429752, 898.9422371214556051 ) ) ;
#381 = EDGE_CURVE ( 'NONE', #78, #40, #119, .T. ) ;
#382 = CARTESIAN_POINT ( 'NONE',  ( -0.7438334739012517627, -25.14483508703431980, 928.9422371214550367 ) ) ;
#383 = CARTESIAN_POINT ( 'NONE',  ( 0.000000000000000000, -19.00000000000000355, 928.9422371214551504 ) ) ;
#384 = SURFACE_STYLE_FILL_AREA ( #142 ) ;
#385 = ORIENTED_EDGE ( 'NONE', *, *, #813, .F. ) ;
#386 = CARTESIAN_POINT ( 'NONE',  ( -0.9988180366445975622, -19.86070956264996212, 928.9422371214551504 ) ) ;
#387 = CARTESIAN_POINT ( 'NONE',  ( 0.000000000000000000, -8.999857976115702485, 901.9422371214556051 ) ) ;
#388 = ORIENTED_EDGE ( 'NONE', *, *, #371, .F. ) ;
#389 = PLANE ( 'NONE',  #283 ) ;
#390 = CARTESIAN_POINT ( 'NONE',  ( -1.000000000000000222, -32.00014202388430107, 901.9422371214556051 ) ) ;
#391 = DIRECTION ( 'NONE',  ( 0.000000000000000000, 0.000000000000000000, -1.000000000000000000 ) ) ;
#392 = VERTEX_POINT ( 'NONE', #130 ) ;
#393 = CARTESIAN_POINT ( 'NONE',  ( 12.17027657926346862, -28.80438182064306218, 898.9422371214557188 ) ) ;
#394 = CIRCLE ( 'NONE', #214, 1.000000000000000000 ) ;
#395 = AXIS2_PLACEMENT_3D ( 'NONE', #666, #175, #239 ) ;
#396 = ORIENTED_EDGE ( 'NONE', *, *, #628, .F. ) ;
#397 = CARTESIAN_POINT ( 'NONE',  ( 0.000000000000000000, -4.999999999999997335, 920.4352645838112039 ) ) ;
#398 = CARTESIAN_POINT ( 'NONE',  ( 0.000000000000000000, -32.00014202388430107, 901.9422371214556051 ) ) ;
#399 = ORIENTED_EDGE ( 'NONE', *, *, #204, .T. ) ;
#400 = ADVANCED_FACE ( 'NONE', ( #630 ), #72, .F. ) ;
#401 = CARTESIAN_POINT ( 'NONE',  ( 0.000000000000000000, -7.999857976115701597, 901.9422371214556051 ) ) ;
#402 = CARTESIAN_POINT ( 'NONE',  ( 0.000000000000000000, -14.85516491296566954, 928.9422371214550367 ) ) ;
#403 =( GEOMETRIC_REPRESENTATION_CONTEXT ( 3 ) GLOBAL_UNCERTAINTY_ASSIGNED_CONTEXT ( ( #715 ) ) GLOBAL_UNIT_ASSIGNED_CONTEXT ( ( #3, #449, #633 ) ) REPRESENTATION_CONTEXT ( 'NONE', 'WORKASPACE' ) );
#404 = ORIENTED_EDGE ( 'NONE', *, *, #578, .T. ) ;
#405 = VECTOR ( 'NONE', #573, 1000.000000000000000 ) ;
#406 = EDGE_CURVE ( 'NONE', #504, #530, #232, .T. ) ;
#407 = DIRECTION ( 'NONE',  ( 0.000000000000000000, 0.000000000000000000, -1.000000000000000000 ) ) ;
#408 = DIRECTION ( 'NONE',  ( -1.000000000000000000, 0.000000000000000000, 0.000000000000000000 ) ) ;
#409 = FACE_OUTER_BOUND ( 'NONE', #626, .T. ) ;
#410 = ORIENTED_EDGE ( 'NONE', *, *, #102, .F. ) ;
#411 = CARTESIAN_POINT ( 'NONE',  ( -7.889676252003754442, -32.75978328557724240, 898.9422371214556051 ) ) ;
#412 = EDGE_CURVE ( 'NONE', #111, #530, #731, .T. ) ;
#413 = CIRCLE ( 'NONE', #294, 1.000000000000000000 ) ;
#414 = ORIENTED_EDGE ( 'NONE', *, *, #500, .F. ) ;
#415 = COLOUR_RGB ( '',0.7921568627450980005, 0.8196078431372548767, 0.9333333333333333481 ) ;
#416 = CARTESIAN_POINT ( 'NONE',  ( 0.1305346554128009595, -19.00000000000000355, 928.9422371214551504 ) ) ;
#417 = PRODUCT_DEFINITION_CONTEXT ( 'detailed design', #296, 'design' ) ;
#418 = CARTESIAN_POINT ( 'NONE',  ( 0.000000000000000000, -32.00014202388430107, 901.9422371214556051 ) ) ;
#419 = VECTOR ( 'NONE', #744, 1000.000000000000000 ) ;
#420 = DIRECTION ( 'NONE',  ( -1.000000000000000000, 0.000000000000000000, -0.000000000000000000 ) ) ;
#421 = FACE_OUTER_BOUND ( 'NONE', #28, .T. ) ;
#422 = DIRECTION ( 'NONE',  ( 0.000000000000000000, 0.000000000000000000, -1.000000000000000000 ) ) ;
#423 = CARTESIAN_POINT ( 'NONE',  ( 1.000000000000000000, -7.999857976115701597, 898.9422371214556051 ) ) ;
#424 = CARTESIAN_POINT ( 'NONE',  ( 0.000000000000000000, -41.74756306451790522, 898.9422371214556051 ) ) ;
#425 = CARTESIAN_POINT ( 'NONE',  ( 1.967811867695208550, -24.91384332991480122, 928.9528635560650400 ) ) ;
#426 = VECTOR ( 'NONE', #594, 1000.000000000000000 ) ;
#427 = CARTESIAN_POINT ( 'NONE',  ( -5.882088232982356502, -5.776338636559586348, 898.9422371214557188 ) ) ;
#428 = EDGE_CURVE ( 'NONE', #710, #765, #535, .T. ) ;
#429 = CARTESIAN_POINT ( 'NONE',  ( 0.3909752185804230562, -19.05167547587099364, 928.9422371214544683 ) ) ;
#430 = CIRCLE ( 'NONE', #76, 1.000000000000000000 ) ;
#431 = ORIENTED_EDGE ( 'NONE', *, *, #145, .F. ) ;
#432 = CARTESIAN_POINT ( 'NONE',  ( -1.967811867695208550, -24.91384332991480122, 928.9528635560650400 ) ) ;
#433 = CARTESIAN_POINT ( 'NONE',  ( 3.052785243878253230, -16.14730447975924221, 928.9847428598977785 ) ) ;
#434 = SURFACE_SIDE_STYLE ('',( #792 ) ) ;
#435 = ORIENTED_EDGE ( 'NONE', *, *, #512, .T. ) ;
#436 = EDGE_CURVE ( 'NONE', #265, #467, #149, .T. ) ;
#437 = LINE ( 'NONE', #379, #405 ) ;
#438 = CARTESIAN_POINT ( 'NONE',  ( 12.11174957513965822, -11.14236926683280871, 898.9422371214557188 ) ) ;
#439 = DIRECTION ( 'NONE',  ( -1.000000000000000000, 0.000000000000000000, 0.000000000000000000 ) ) ;
#440 =( NAMED_UNIT ( * ) SI_UNIT ( $, .STERADIAN. ) SOLID_ANGLE_UNIT ( ) );
#441 = ADVANCED_FACE ( 'NONE', ( #725 ), #616, .F. ) ;
#442 = VERTEX_POINT ( 'NONE', #354 ) ;
#443 = VECTOR ( 'NONE', #545, 1000.000000000000000 ) ;
#444 = ORIENTED_EDGE ( 'NONE', *, *, #595, .T. ) ;
#445 = CARTESIAN_POINT ( 'NONE',  ( 0.000000000000000000, -35.00000000000000000, 920.4352645838112039 ) ) ;
#446 = ORIENTED_EDGE ( 'NONE', *, *, #541, .F. ) ;
#447 = FACE_OUTER_BOUND ( 'NONE', #513, .T. ) ;
#448 = CARTESIAN_POINT ( 'NONE',  ( 1.602651857608157648, -5.064631629322528639, 898.9422371214556051 ) ) ;
#449 =( NAMED_UNIT ( * ) PLANE_ANGLE_UNIT ( ) SI_UNIT ( $, .RADIAN. ) );
#450 = ADVANCED_FACE ( 'NONE', ( #409 ), #793, .T. ) ;
#451 = PRESENTATION_STYLE_ASSIGNMENT (( #625 ) ) ;
#452 = ORIENTED_EDGE ( 'NONE', *, *, #428, .F. ) ;
#453 = AXIS2_PLACEMENT_3D ( 'NONE', #483, #804, #361 ) ;
#454 = PLANE ( 'NONE',  #733 ) ;
#455 = ORIENTED_EDGE ( 'NONE', *, *, #346, .T. ) ;
#456 = DIRECTION ( 'NONE',  ( 0.000000000000000000, 0.000000000000000000, 1.000000000000000000 ) ) ;
#457 = UNCERTAINTY_MEASURE_WITH_UNIT (LENGTH_MEASURE( 1.000000000000000082E-05 ), #64, 'distance_accuracy_value', 'NONE');
#458 = EDGE_LOOP ( 'NONE', ( #355, #10, #176, #822, #81, #275 ) ) ;
#459 = EDGE_CURVE ( 'NONE', #511, #359, #748, .T. ) ;
#460 = CARTESIAN_POINT ( 'NONE',  ( -1.590481107580910267E-13, -5.000000000000005329, 898.9422371214551504 ) ) ;
#461 = FACE_OUTER_BOUND ( 'NONE', #458, .T. ) ;
#462 = CARTESIAN_POINT ( 'NONE',  ( -8.109725464839090847, -32.61857363530646126, 898.9422371214552641 ) ) ;
#463 = ORIENTED_EDGE ( 'NONE', *, *, #599, .T. ) ;
#464 = EDGE_CURVE ( 'NONE', #171, #519, #591, .T. ) ;
#465 = AXIS2_PLACEMENT_3D ( 'NONE', #714, #287, #650 ) ;
#466 = CARTESIAN_POINT ( 'NONE',  ( 0.000000000000000000, -32.00014202388430107, 901.9422371214556051 ) ) ;
#467 = VERTEX_POINT ( 'NONE', #282 ) ;
#468 = CARTESIAN_POINT ( 'NONE',  ( -1.968970960349521793, -34.99999999999999289, 898.9422371214552641 ) ) ;
#469 = EDGE_CURVE ( 'NONE', #197, #265, #345, .T. ) ;
#470 = DIRECTION ( 'NONE',  ( 1.000000000000000000, 0.000000000000000000, 0.000000000000000000 ) ) ;
#471 = ORIENTED_EDGE ( 'NONE', *, *, #266, .F. ) ;
#472 = FACE_OUTER_BOUND ( 'NONE', #569, .T. ) ;
#473 = ORIENTED_EDGE ( 'NONE', *, *, #258, .F. ) ;
#474 = LINE ( 'NONE', #531, #328 ) ;
#475 = CARTESIAN_POINT ( 'NONE',  ( -14.21604772438746700, -25.89753673334569228, 898.9422371214548093 ) ) ;
#476 = VERTEX_POINT ( 'NONE', #526 ) ;
#477 = CIRCLE ( 'NONE', #225, 1.000000000000000000 ) ;
#478 = CARTESIAN_POINT ( 'NONE',  ( 8.109725464839090847, -32.61857363530646126, 898.9422371214552641 ) ) ;
#479 = CIRCLE ( 'NONE', #395, 1.000000000000000222 ) ;
#480 = CARTESIAN_POINT ( 'NONE',  ( 0.3943229678930657567, -20.94765814687127659, 928.9422371214543546 ) ) ;
#481 = LINE ( 'NONE', #164, #228 ) ;
#482 = CARTESIAN_POINT ( 'NONE',  ( -6.893351213404780076, -33.33723385980449905, 898.9422371214548093 ) ) ;
#483 = CARTESIAN_POINT ( 'NONE',  ( 0.000000000000000000, -7.999857976115701597, 901.9422371214556051 ) ) ;
#484 = CARTESIAN_POINT ( 'NONE',  ( 14.03704300353542500, -15.36222527941453286, 920.8406869925159981 ) ) ;
#485 = CARTESIAN_POINT ( 'NONE',  ( 0.000000000000000000, -19.00000000000000355, 928.9422371214551504 ) ) ;
#486 = ORIENTED_EDGE ( 'NONE', *, *, #195, .T. ) ;
#487 = ADVANCED_FACE ( 'NONE', ( #472 ), #728, .T. ) ;
#488 = CARTESIAN_POINT ( 'NONE',  ( -3.068303949878528503, -23.84812317388051994, 928.9847428598974375 ) ) ;
#489 = LINE ( 'NONE', #103, #426 ) ;
#490 = CARTESIAN_POINT ( 'NONE',  ( 0.000000000000000000, -8.999857976115702485, 898.9422371214556051 ) ) ;
#491 = B_SPLINE_CURVE_WITH_KNOTS ( 'NONE', 3,
 ( #542, #806, #233, #485 ),
 .UNSPECIFIED., .F., .F.,
 ( 4, 4 ),
 ( 0.000000000000000000, 1.000000000000000000 ),
 .UNSPECIFIED. ) ;
#492 = FACE_OUTER_BOUND ( 'NONE', #189, .T. ) ;
#493 = VERTEX_POINT ( 'NONE', #532 ) ;
#494 = CARTESIAN_POINT ( 'NONE',  ( -0.7220738156904695781, -19.27157229175382369, 928.9422371214564009 ) ) ;
#495 = CARTESIAN_POINT ( 'NONE',  ( 3.560684358566827967, -19.25445813769926318, 929.0272485983388151 ) ) ;
#496 = VECTOR ( 'NONE', #360, 1000.000000000000000 ) ;
#497 = CIRCLE ( 'NONE', #139, 1.000000000000000222 ) ;
#498 = ORIENTED_EDGE ( 'NONE', *, *, #236, .T. ) ;
#499 = DIRECTION ( 'NONE',  ( 0.000000000000000000, 0.000000000000000000, -1.000000000000000000 ) ) ;
#500 = EDGE_CURVE ( 'NONE', #78, #504, #367, .T. ) ;
#501 = CARTESIAN_POINT ( 'NONE',  ( 11.86760471157531249, -10.81717474141477098, 898.9422371214559462 ) ) ;
#502 = FACE_OUTER_BOUND ( 'NONE', #368, .T. ) ;
#503 = PRESENTATION_STYLE_ASSIGNMENT (( #683 ) ) ;
#504 = VERTEX_POINT ( 'NONE', #584 ) ;
#505 = CARTESIAN_POINT ( 'NONE',  ( 0.000000000000000000, -34.99999999999999289, 898.9422371214551504 ) ) ;
#506 = CARTESIAN_POINT ( 'NONE',  ( -14.21604772438746700, -25.89753673334569228, 898.9422371214548093 ) ) ;
#507 = LINE ( 'NONE', #58, #242 ) ;
#508 = CARTESIAN_POINT ( 'NONE',  ( 1.590481107580910267E-13, -5.000000000000005329, 898.9422371214551504 ) ) ;
#509 = ORIENTED_EDGE ( 'NONE', *, *, #346, .F. ) ;
#510 = CARTESIAN_POINT ( 'NONE',  ( 8.841689347593250758, -7.881642831378457004, 898.9422371214556051 ) ) ;
#511 = VERTEX_POINT ( 'NONE', #146 ) ;
#512 = EDGE_CURVE ( 'NONE', #84, #511, #29, .T. ) ;
#513 = EDGE_LOOP ( 'NONE', ( #509, #323, #245, #327, #399, #572, #589, #640, #585, #15 ) ) ;
#514 = CARTESIAN_POINT ( 'NONE',  ( 1.000000000000000000, -7.999857976115701597, 901.9422371214556051 ) ) ;
#515 = VERTEX_POINT ( 'NONE', #26 ) ;
#516 = CARTESIAN_POINT ( 'NONE',  ( 0.000000000000000000, -19.00000000000000355, 928.9422371214551504 ) ) ;
#517 = ADVANCED_FACE ( 'NONE', ( #783 ), #210, .F. ) ;
#518 = CARTESIAN_POINT ( 'NONE',  ( -8.109725464839090847, -32.61857363530646126, 898.9422371214552641 ) ) ;
#519 = VERTEX_POINT ( 'NONE', #810 ) ;
#520 = DIRECTION ( 'NONE',  ( -1.000000000000000000, 0.000000000000000000, -0.000000000000000000 ) ) ;
#521 = CARTESIAN_POINT ( 'NONE',  ( 14.63020688158565186, -16.59625732702441070, 898.9422371214557188 ) ) ;
#522 = CARTESIAN_POINT ( 'NONE',  ( -10.88400732761273204, -9.115992672387053020, 898.9422371214552641 ) ) ;
#523 = ORIENTED_EDGE ( 'NONE', *, *, #318, .F. ) ;
#524 = B_SPLINE_CURVE_WITH_KNOTS ( 'NONE', 3,
 ( #803, #482, #46, #468, #724 ),
 .UNSPECIFIED., .F., .F.,
 ( 4, 1, 4 ),
 ( 0.8344517409901169858, 0.8746514147267963057, 1.000000000000000000 ),
 .UNSPECIFIED. ) ;
#525 = VECTOR ( 'NONE', #732, 1000.000000000000000 ) ;
#526 = CARTESIAN_POINT ( 'NONE',  ( 0.000000000000000000, -33.00014202388430107, 898.9422371214556051 ) ) ;
#527 = CARTESIAN_POINT ( 'NONE',  ( -14.22366136344031951, -14.11791176701743922, 898.9422371214552641 ) ) ;
#528 = FILL_AREA_STYLE ('',( #280 ) ) ;
#529 = CARTESIAN_POINT ( 'NONE',  ( -7.439560805254446407, -33.02503764990401436, 898.9422371214552641 ) ) ;
#530 = VERTEX_POINT ( 'NONE', #237 ) ;
#531 = CARTESIAN_POINT ( 'NONE',  ( 1.000000000000000000, -7.999857976115701597, 901.9422371214556051 ) ) ;
#532 = CARTESIAN_POINT ( 'NONE',  ( 1.000000000000000222, -32.00014202388430107, 898.9422371214556051 ) ) ;
#533 = EDGE_LOOP ( 'NONE', ( #234, #431 ) ) ;
#534 = FACE_OUTER_BOUND ( 'NONE', #123, .T. ) ;
#535 = CIRCLE ( 'NONE', #465, 1.000000000000000000 ) ;
#536 = FACE_OUTER_BOUND ( 'NONE', #69, .T. ) ;
#537 = ORIENTED_EDGE ( 'NONE', *, *, #787, .F. ) ;
#538 = PRODUCT_DEFINITION ( 'UNKNOWN', '', #644, #417 ) ;
#539 = CARTESIAN_POINT ( 'NONE',  ( 13.75856511263984849, -26.03020650962727345, 898.9422371214556051 ) ) ;
#540 = CARTESIAN_POINT ( 'NONE',  ( 3.525081422962434541, -17.83836050585593824, 929.0166221637283570 ) ) ;
#541 = EDGE_CURVE ( 'NONE', #476, #812, #489, .T. ) ;
#542 = CARTESIAN_POINT ( 'NONE',  ( 0.000000000000000000, -20.99999999999999645, 928.9422371214551504 ) ) ;
#543 = B_SPLINE_CURVE_WITH_KNOTS ( 'NONE', 3,
 ( #742, #604, #738, #162 ),
 .UNSPECIFIED., .F., .F.,
 ( 4, 4 ),
 ( 0.000000000000000000, 1.000000000000000000 ),
 .UNSPECIFIED. ) ;
#544 = CARTESIAN_POINT ( 'NONE',  ( -14.99999999999995914, -18.04198016891360012, 898.9422371214552641 ) ) ;
#545 = DIRECTION ( 'NONE',  ( 0.000000000000000000, 0.000000000000000000, -1.000000000000000000 ) ) ;
#546 = CYLINDRICAL_SURFACE ( 'NONE', #352, 1.000000000000000000 ) ;
#547 = CARTESIAN_POINT ( 'NONE',  ( -1.000000000000000222, -32.00014202388430107, 901.9422371214556051 ) ) ;
#548 = ORIENTED_EDGE ( 'NONE', *, *, #74, .T. ) ;
#549 = CARTESIAN_POINT ( 'NONE',  ( 0.000000000000000000, -34.99999999999999289, 898.9422371214551504 ) ) ;
#550 = CARTESIAN_POINT ( 'NONE',  ( 0.000000000000000000, -19.00000000000000355, 928.9422371214551504 ) ) ;
#551 = CIRCLE ( 'NONE', #308, 1.000000000000000222 ) ;
#552 = ORIENTED_EDGE ( 'NONE', *, *, #586, .F. ) ;
#553 = CARTESIAN_POINT ( 'NONE',  ( -10.88195750273153450, -30.88195750273143858, 898.9422371214550367 ) ) ;
#554 = CARTESIAN_POINT ( 'NONE',  ( 14.04830962165757846, -24.64371036480938670, 920.8406869925155434 ) ) ;
#555 = STYLED_ITEM ( 'NONE', ( #503 ), #66 ) ;
#556 = ORIENTED_EDGE ( 'NONE', *, *, #343, .T. ) ;
#557 = CARTESIAN_POINT ( 'NONE',  ( -0.7396963806373051398, -14.85516491296566244, 928.9422371214550367 ) ) ;
#558 = LINE ( 'NONE', #16, #703 ) ;
#559 = CARTESIAN_POINT ( 'NONE',  ( 0.000000000000000000, -33.00014202388430107, 901.9422371214556051 ) ) ;
#560 = VERTEX_POINT ( 'NONE', #38 ) ;
#561 = CARTESIAN_POINT ( 'NONE',  ( -9.930168786905218425, -29.82885383063937823, 920.6669345316427098 ) ) ;
#562 = APPLICATION_PROTOCOL_DEFINITION ( 'draft international standard', 'automotive_design', 1998, #808 ) ;
#563 = CARTESIAN_POINT ( 'NONE',  ( 0.000000000000000000, -7.999857976115701597, 898.9422371214556051 ) ) ;
#564 = ORIENTED_EDGE ( 'NONE', *, *, #469, .F. ) ;
#565 = MECHANICAL_DESIGN_GEOMETRIC_PRESENTATION_REPRESENTATION (  '', ( #669 ), #717 ) ;
#566 = AXIS2_PLACEMENT_3D ( 'NONE', #333, #326, #439 ) ;
#567 = EDGE_CURVE ( 'NONE', #765, #740, #291, .T. ) ;
#568 = FACE_OUTER_BOUND ( 'NONE', #607, .T. ) ;
#569 = EDGE_LOOP ( 'NONE', ( #284, #404 ) ) ;
#570 = DIRECTION ( 'NONE',  ( 0.000000000000000000, 0.000000000000000000, 1.000000000000000000 ) ) ;
#571 =( NAMED_UNIT ( * ) SI_UNIT ( $, .STERADIAN. ) SOLID_ANGLE_UNIT ( ) );
#572 = ORIENTED_EDGE ( 'NONE', *, *, #290, .F. ) ;
#573 = DIRECTION ( 'NONE',  ( 0.000000000000000000, -1.000000000000000000, 0.000000000000000000 ) ) ;
#574 = PRODUCT_DEFINITION_SHAPE ( 'NONE', 'NONE',  #538 ) ;
#575 = ADVANCED_FACE ( 'NONE', ( #534 ), #300, .T. ) ;
#576 = CYLINDRICAL_SURFACE ( 'NONE', #618, 1.000000000000000222 ) ;
#577 = VERTEX_POINT ( 'NONE', #478 ) ;
#578 = EDGE_CURVE ( 'NONE', #40, #78, #543, .T. ) ;
#579 = CARTESIAN_POINT ( 'NONE',  ( 13.89634117843360706, -14.29358789580772715, 898.9422371214556051 ) ) ;
#580 = LINE ( 'NONE', #264, #211 ) ;
#581 = ORIENTED_EDGE ( 'NONE', *, *, #281, .F. ) ;
#582 = DIRECTION ( 'NONE',  ( 0.000000000000000000, -1.000000000000000000, 0.000000000000000000 ) ) ;
#583 = EDGE_LOOP ( 'NONE', ( #674, #548, #556, #88 ) ) ;
#584 = CARTESIAN_POINT ( 'NONE',  ( -1.590481107580910267E-13, -5.000000000000005329, 898.9422371214551504 ) ) ;
#585 = ORIENTED_EDGE ( 'NONE', *, *, #672, .T. ) ;
#586 = EDGE_CURVE ( 'NONE', #807, #94, #664, .T. ) ;
#587 = AXIS2_PLACEMENT_3D ( 'NONE', #401, #796, #520 ) ;
#588 = DIRECTION ( 'NONE',  ( -0.000000000000000000, -0.000000000000000000, 1.000000000000000000 ) ) ;
#589 = ORIENTED_EDGE ( 'NONE', *, *, #412, .T. ) ;
#590 = AXIS2_PLACEMENT_3D ( 'NONE', #54, #606, #50 ) ;
#591 = LINE ( 'NONE', #93, #31 ) ;
#592 = CARTESIAN_POINT ( 'NONE',  ( -1.958019831086155182, -4.999999999999984013, 898.9422371214551504 ) ) ;
#593 = FACE_OUTER_BOUND ( 'NONE', #212, .T. ) ;
#594 = DIRECTION ( 'NONE',  ( 0.000000000000000000, -1.000000000000000000, 0.000000000000000000 ) ) ;
#595 = EDGE_CURVE ( 'NONE', #359, #84, #814, .T. ) ;
#596 = CARTESIAN_POINT ( 'NONE',  ( 0.000000000000000000, -25.14483508703432335, 928.9422371214550367 ) ) ;
#597 = DIRECTION ( 'NONE',  ( -1.000000000000000000, 0.000000000000000000, 0.000000000000000000 ) ) ;
#598 = DIRECTION ( 'NONE',  ( 0.000000000000000000, 0.000000000000000000, 1.000000000000000000 ) ) ;
#599 = EDGE_CURVE ( 'NONE', #442, #515, #551, .T. ) ;
#600 = CARTESIAN_POINT ( 'NONE',  ( 0.000000000000000000, -8.999857976115702485, 901.9422371214556051 ) ) ;
#601 = CIRCLE ( 'NONE', #268, 1.000000000000000000 ) ;
#602 = CARTESIAN_POINT ( 'NONE',  ( 14.86097597192892295, -22.18553367112522778, 898.9422371214557188 ) ) ;
#603 = CARTESIAN_POINT ( 'NONE',  ( 0.7396963806373051398, -14.85516491296566244, 928.9422371214550367 ) ) ;
#604 = CARTESIAN_POINT ( 'NONE',  ( 0.000000000000000000, -20.33333333333333215, 928.9422371214551504 ) ) ;
#605 = CARTESIAN_POINT ( 'NONE',  ( 0.7438334739012517627, -25.14483508703431980, 928.9422371214550367 ) ) ;
#606 = DIRECTION ( 'NONE',  ( -1.000000000000000000, 0.000000000000000000, 0.000000000000000000 ) ) ;
#607 = EDGE_LOOP ( 'NONE', ( #684, #751, #336 ) ) ;
#608 = CARTESIAN_POINT ( 'NONE',  ( 0.000000000000000000, -31.00014202388429752, 901.9422371214556051 ) ) ;
#609 = CARTESIAN_POINT ( 'NONE',  ( -1.000000000000000000, -7.999857976115701597, 901.9422371214556051 ) ) ;
#610 = ORIENTED_EDGE ( 'NONE', *, *, #795, .F. ) ;
#611 = CARTESIAN_POINT ( 'NONE',  ( -10.88400732761273204, -9.115992672387053020, 898.9422371214552641 ) ) ;
#612 = CARTESIAN_POINT ( 'NONE',  ( 1.590481107580910267E-13, -5.000000000000005329, 898.9422371214551504 ) ) ;
#613 = CARTESIAN_POINT ( 'NONE',  ( 4.656618802416974567, -6.118124546409037023, 920.4931820707691941 ) ) ;
#614 = FACE_OUTER_BOUND ( 'NONE', #259, .T. ) ;
#615 = CARTESIAN_POINT ( 'NONE',  ( 0.9988180366445975622, -19.86070956264996212, 928.9422371214551504 ) ) ;
#616 = PLANE ( 'NONE',  #798 ) ;
#617 = ORIENTED_EDGE ( 'NONE', *, *, #641, .F. ) ;
#618 = AXIS2_PLACEMENT_3D ( 'NONE', #133, #250, #620 ) ;
#619 = CARTESIAN_POINT ( 'NONE',  ( -3.560684358566827967, -19.25445813769926318, 929.0272485983388151 ) ) ;
#620 = DIRECTION ( 'NONE',  ( -1.000000000000000000, 0.000000000000000000, 0.000000000000000000 ) ) ;
#621 = CARTESIAN_POINT ( 'NONE',  ( -2.248972592686743359E-15, -35.00000000000000000, 898.9422371214551504 ) ) ;
#622 = LINE ( 'NONE', #319, #222 ) ;
#623 = DIRECTION ( 'NONE',  ( 0.000000000000000000, -1.000000000000000000, 0.000000000000000000 ) ) ;
#624 = CARTESIAN_POINT ( 'NONE',  ( 0.3943229678930657567, -20.94765814687127659, 928.9422371214543546 ) ) ;
#625 = SURFACE_STYLE_USAGE ( .BOTH. , #83 ) ;
#626 = EDGE_LOOP ( 'NONE', ( #180, #216, #8 ) ) ;
#627 = CARTESIAN_POINT ( 'NONE',  ( 0.000000000000000000, -25.14483508703432335, 928.9422371214550367 ) ) ;
#628 = EDGE_CURVE ( 'NONE', #716, #156, #166, .T. ) ;
#629 = CARTESIAN_POINT ( 'NONE',  ( 7.319683279328338621, -6.901088285857039040, 898.9422371214553777 ) ) ;
#630 = FACE_OUTER_BOUND ( 'NONE', #583, .T. ) ;
#631 = ORIENTED_EDGE ( 'NONE', *, *, #85, .T. ) ;
#632 = DIRECTION ( 'NONE',  ( -1.000000000000000000, 0.000000000000000000, 0.000000000000000000 ) ) ;
#633 =( NAMED_UNIT ( * ) SI_UNIT ( $, .STERADIAN. ) SOLID_ANGLE_UNIT ( ) );
#634 = CARTESIAN_POINT ( 'NONE',  ( 0.7289837867656365766, -20.72262504367619584, 928.9422371214558325 ) ) ;
#635 = DIRECTION ( 'NONE',  ( 0.000000000000000000, 0.000000000000000000, -1.000000000000000000 ) ) ;
#636 = ORIENTED_EDGE ( 'NONE', *, *, #132, .T. ) ;
#637 = CARTESIAN_POINT ( 'NONE',  ( 10.61195741814159277, -30.63222387229279065, 898.9422371214554914 ) ) ;
#638 = FACE_OUTER_BOUND ( 'NONE', #55, .T. ) ;
#639 = CARTESIAN_POINT ( 'NONE',  ( 6.873797571064145018, -33.34841315025645514, 898.9422371214554914 ) ) ;
#640 = ORIENTED_EDGE ( 'NONE', *, *, #406, .F. ) ;
#641 = EDGE_CURVE ( 'NONE', #716, #270, #413, .T. ) ;
#642 = CARTESIAN_POINT ( 'NONE',  ( 0.9510763603619939444, -20.38600559982993587, 928.9422371214544683 ) ) ;
#643 = CARTESIAN_POINT ( 'NONE',  ( 7.439560805254446407, -33.02503764990401436, 898.9422371214552641 ) ) ;
#644 = PRODUCT_DEFINITION_FORMATION_WITH_SPECIFIED_SOURCE ( 'ANY', '', #20, .NOT_KNOWN. ) ;
#645 = DIRECTION ( 'NONE',  ( 1.000000000000000000, 0.000000000000000000, 0.000000000000000000 ) ) ;
#646 = ORIENTED_EDGE ( 'NONE', *, *, #213, .T. ) ;
#647 = FACE_OUTER_BOUND ( 'NONE', #339, .T. ) ;
#648 = CLOSED_SHELL ( 'NONE', ( #165, #23, #730, #353, #27, #400, #735, #694, #747, #441 ) ) ;
#649 = CARTESIAN_POINT ( 'NONE',  ( 0.000000000000000000, -32.00014202388430107, 901.9422371214556051 ) ) ;
#650 = DIRECTION ( 'NONE',  ( -1.000000000000000000, 0.000000000000000000, 0.000000000000000000 ) ) ;
#651 = FACE_OUTER_BOUND ( 'NONE', #202, .T. ) ;
#652 = ADVANCED_FACE ( 'NONE', ( #614 ), #169, .F. ) ;
#653 = VERTEX_POINT ( 'NONE', #383 ) ;
#654 = B_SPLINE_CURVE_WITH_KNOTS ( 'NONE', 3,
 ( #549, #243, #224, #114 ),
 .UNSPECIFIED., .F., .F.,
 ( 4, 4 ),
 ( 0.000000000000000000, 1.000000000000000000 ),
 .UNSPECIFIED. ) ;
#655 = DIRECTION ( 'NONE',  ( -1.000000000000000000, 0.000000000000000000, 0.000000000000000000 ) ) ;
#656 = AXIS2_PLACEMENT_3D ( 'NONE', #466, #277, #790 ) ;
#657 = ORIENTED_EDGE ( 'NONE', *, *, #436, .F. ) ;
#658 = CIRCLE ( 'NONE', #722, 1.000000000000000222 ) ;
#659 = CARTESIAN_POINT ( 'NONE',  ( 0.000000000000000000, -33.00014202388430107, 901.9422371214556051 ) ) ;
#660 = CARTESIAN_POINT ( 'NONE',  ( -9.010640833338195321, -32.03910981971534255, 898.9422371214548093 ) ) ;
#661 = CARTESIAN_POINT ( 'NONE',  ( 15.19072563535025466, -21.35350746094777463, 920.8986044794737609 ) ) ;
#662 = ORIENTED_EDGE ( 'NONE', *, *, #718, .T. ) ;
#663 = EDGE_CURVE ( 'NONE', #807, #293, #622, .T. ) ;
#664 = LINE ( 'NONE', #600, #350 ) ;
#665 = CARTESIAN_POINT ( 'NONE',  ( 0.9510763603619939444, -20.38600559982993587, 928.9422371214544683 ) ) ;
#666 = CARTESIAN_POINT ( 'NONE',  ( 0.000000000000000000, -32.00014202388430107, 901.9422371214556051 ) ) ;
#667 = CARTESIAN_POINT ( 'NONE',  ( 0.000000000000000000, -41.74756306451790522, 898.9422371214556051 ) ) ;
#668 = DIRECTION ( 'NONE',  ( 0.000000000000000000, -1.000000000000000000, 0.000000000000000000 ) ) ;
#669 = STYLED_ITEM ( 'NONE', ( #451 ), #341 ) ;
#670 = CARTESIAN_POINT ( 'NONE',  ( 0.1312647306771180244, -20.99999999999999645, 928.9422371214551504 ) ) ;
#671 = CARTESIAN_POINT ( 'NONE',  ( 0.000000000000000000, -7.999857976115701597, 901.9422371214556051 ) ) ;
#672 = EDGE_CURVE ( 'NONE', #504, #740, #507, .T. ) ;
#673 = AXIS2_PLACEMENT_3D ( 'NONE', #157, #739, #163 ) ;
#674 = ORIENTED_EDGE ( 'NONE', *, *, #61, .F. ) ;
#675 = CARTESIAN_POINT ( 'NONE',  ( -1.348858105861809209, -4.999999999999985789, 920.4352645838112039 ) ) ;
#676 = VECTOR ( 'NONE', #821, 1000.000000000000000 ) ;
#677 = CARTESIAN_POINT ( 'NONE',  ( 0.9988180366445975622, -19.86070956264996212, 928.9422371214551504 ) ) ;
#678 = DIRECTION ( 'NONE',  ( -1.000000000000000000, 0.000000000000000000, 0.000000000000000000 ) ) ;
#679 = ORIENTED_EDGE ( 'NONE', *, *, #201, .T. ) ;
#680 = CARTESIAN_POINT ( 'NONE',  ( -4.671601523310116910, -33.87658578163055978, 920.4931820707685119 ) ) ;
#681 = CARTESIAN_POINT ( 'NONE',  ( 10.55906326106569360, -9.290918958438297182, 898.9422371214554914 ) ) ;
#682 = CARTESIAN_POINT ( 'NONE',  ( 0.000000000000000000, -7.999857976115701597, 901.9422371214556051 ) ) ;
#683 = SURFACE_STYLE_USAGE ( .BOTH. , #434 ) ;
#684 = ORIENTED_EDGE ( 'NONE', *, *, #512, .F. ) ;
#685 = CARTESIAN_POINT ( 'NONE',  ( -3.569348995000031444, -20.73795677880794486, 929.0272485983388151 ) ) ;
#686 = CARTESIAN_POINT ( 'NONE',  ( 12.80177878388980872, -12.14162705846690216, 898.9422371214552641 ) ) ;
#687 = CARTESIAN_POINT ( 'NONE',  ( 0.000000000000000000, -6.999857976115701597, 901.9422371214556051 ) ) ;
#688 = CARTESIAN_POINT ( 'NONE',  ( 0.000000000000000000, -8.999857976115702485, 901.9422371214556051 ) ) ;
#689 = ORIENTED_EDGE ( 'NONE', *, *, #116, .T. ) ;
#690 = CARTESIAN_POINT ( 'NONE',  ( -5.897536733345754456, -34.21604772438745101, 898.9422371214546956 ) ) ;
#691 = EDGE_CURVE ( 'NONE', #560, #577, #776, .T. ) ;
#692 = CARTESIAN_POINT ( 'NONE',  ( 0.000000000000000000, -25.14483508703432335, 928.9422371214550367 ) ) ;
#693 = ORIENTED_EDGE ( 'NONE', *, *, #567, .F. ) ;
#694 = ADVANCED_FACE ( 'NONE', ( #647 ), #271, .F. ) ;
#695 = APPLICATION_PROTOCOL_DEFINITION ( 'draft international standard', 'automotive_design', 1998, #296 ) ;
#696 = DIRECTION ( 'NONE',  ( 0.000000000000000000, 0.000000000000000000, 1.000000000000000000 ) ) ;
#697 = ORIENTED_EDGE ( 'NONE', *, *, #57, .F. ) ;
#698 = CARTESIAN_POINT ( 'NONE',  ( 0.000000000000000000, -20.99999999999999645, 928.9422371214551504 ) ) ;
#699 = DIRECTION ( 'NONE',  ( 1.000000000000000000, 0.000000000000000000, 0.000000000000000000 ) ) ;
#700 = ADVANCED_FACE ( 'NONE', ( #502 ), #546, .F. ) ;
#701 = ORIENTED_EDGE ( 'NONE', *, *, #356, .T. ) ;
#702 = AXIS2_PLACEMENT_3D ( 'NONE', #398, #391, #80 ) ;
#703 = VECTOR ( 'NONE', #623, 1000.000000000000000 ) ;
#704 = CARTESIAN_POINT ( 'NONE',  ( 0.000000000000000000, -41.74756306451790522, 886.5481767731080254 ) ) ;
#705 = DIRECTION ( 'NONE',  ( 1.000000000000000000, 0.000000000000000000, 0.000000000000000000 ) ) ;
#706 = ORIENTED_EDGE ( 'NONE', *, *, #691, .F. ) ;
#707 = CARTESIAN_POINT ( 'NONE',  ( -1.579664142769023797E-13, -5.000000000000000888, 898.9422371214551504 ) ) ;
#708 = CARTESIAN_POINT ( 'NONE',  ( 13.20475128155456090, -12.83859785308482060, 898.9422371214554914 ) ) ;
#709 = CARTESIAN_POINT ( 'NONE',  ( 0.000000000000000000, -14.85516491296566954, 928.9422371214550367 ) ) ;
#710 = VERTEX_POINT ( 'NONE', #609 ) ;
#711 = CARTESIAN_POINT ( 'NONE',  ( 0.000000000000000000, -14.85516491296566954, 928.9422371214550367 ) ) ;
#712 = ADVANCED_BREP_SHAPE_REPRESENTATION ( 'TAIL 3', ( #341, #66, #121 ), #403 ) ;
#713 = CARTESIAN_POINT ( 'NONE',  ( 0.000000000000000000, -4.999999999999997335, 920.4352645838112039 ) ) ;
#714 = CARTESIAN_POINT ( 'NONE',  ( 0.000000000000000000, -7.999857976115701597, 901.9422371214556051 ) ) ;
#715 = UNCERTAINTY_MEASURE_WITH_UNIT (LENGTH_MEASURE( 1.000000000000000082E-05 ), #3, 'distance_accuracy_value', 'NONE');
#716 = VERTEX_POINT ( 'NONE', #490 ) ;
#717 =( GEOMETRIC_REPRESENTATION_CONTEXT ( 3 ) GLOBAL_UNCERTAINTY_ASSIGNED_CONTEXT ( ( #143 ) ) GLOBAL_UNIT_ASSIGNED_CONTEXT ( ( #140, #330, #571 ) ) REPRESENTATION_CONTEXT ( 'NONE', 'WORKASPACE' ) );
#718 = EDGE_CURVE ( 'NONE', #331, #577, #788, .T. ) ;
#719 = CARTESIAN_POINT ( 'NONE',  ( 15.02010597431058514, -19.78650760513188800, 898.9422371214554914 ) ) ;
#720 = ORIENTED_EDGE ( 'NONE', *, *, #459, .T. ) ;
#721 = CARTESIAN_POINT ( 'NONE',  ( 11.16134165628280428, -30.05361105896235685, 898.9422371214558325 ) ) ;
#722 = AXIS2_PLACEMENT_3D ( 'NONE', #418, #97, #597 ) ;
#723 = EDGE_CURVE ( 'NONE', #812, #782, #654, .T. ) ;
#724 = CARTESIAN_POINT ( 'NONE',  ( 0.000000000000000000, -34.99999999999999289, 898.9422371214551504 ) ) ;
#725 = FACE_OUTER_BOUND ( 'NONE', #106, .T. ) ;
#726 = ORIENTED_EDGE ( 'NONE', *, *, #161, .T. ) ;
#727 = LINE ( 'NONE', #667, #525 ) ;
#728 = PLANE ( 'NONE',  #134 ) ;
#729 = ORIENTED_EDGE ( 'NONE', *, *, #464, .T. ) ;
#730 = ADVANCED_FACE ( 'NONE', ( #536 ), #305, .T. ) ;
#731 = B_SPLINE_CURVE_WITH_KNOTS ( 'NONE', 3,
 ( #529, #208, #411, #462 ),
 .UNSPECIFIED., .F., .F.,
 ( 4, 4 ),
 ( 0.000000000000000000, 1.000000000000000000 ),
 .UNSPECIFIED. ) ;
#732 = DIRECTION ( 'NONE',  ( 0.000000000000000000, -1.000000000000000000, 0.000000000000000000 ) ) ;
#733 = AXIS2_PLACEMENT_3D ( 'NONE', #205, #635, #274 ) ;
#734 = CARTESIAN_POINT ( 'NONE',  ( 0.000000000000000000, -20.00000000000000000, 928.9422371214551504 ) ) ;
#735 = ADVANCED_FACE ( 'NONE', ( #421 ), #362, .F. ) ;
#736 = ORIENTED_EDGE ( 'NONE', *, *, #74, .F. ) ;
#737 = AXIS2_PLACEMENT_3D ( 'NONE', #70, #499, #756 ) ;
#738 = CARTESIAN_POINT ( 'NONE',  ( 0.000000000000000000, -19.66666666666666785, 928.9422371214551504 ) ) ;
#739 = DIRECTION ( 'NONE',  ( 0.000000000000000000, 0.000000000000000000, -1.000000000000000000 ) ) ;
#740 = VERTEX_POINT ( 'NONE', #79 ) ;
#741 = LINE ( 'NONE', #387, #279 ) ;
#742 = CARTESIAN_POINT ( 'NONE',  ( 0.000000000000000000, -20.99999999999999645, 928.9422371214551504 ) ) ;
#743 = CARTESIAN_POINT ( 'NONE',  ( 9.930168786905218425, -29.82885383063937823, 920.6669345316427098 ) ) ;
#744 = DIRECTION ( 'NONE',  ( -0.000000000000000000, -0.000000000000000000, 1.000000000000000000 ) ) ;
#745 = CARTESIAN_POINT ( 'NONE',  ( -0.7289837867656365766, -20.72262504367619584, 928.9422371214558325 ) ) ;
#746 = CARTESIAN_POINT ( 'NONE',  ( 0.000000000000000000, -6.999857976115701597, 901.9422371214556051 ) ) ;
#747 = ADVANCED_FACE ( 'NONE', ( #182 ), #256, .T. ) ;
#748 = CIRCLE ( 'NONE', #364, 1.000000000000000000 ) ;
#749 = CARTESIAN_POINT ( 'NONE',  ( 14.21604772438746700, -25.89753673334569228, 898.9422371214548093 ) ) ;
#750 =( NAMED_UNIT ( * ) PLANE_ANGLE_UNIT ( ) SI_UNIT ( $, .RADIAN. ) );
#751 = ORIENTED_EDGE ( 'NONE', *, *, #595, .F. ) ;
#752 = CARTESIAN_POINT ( 'NONE',  ( 0.000000000000000000, -7.999857976115701597, 898.9422371214556051 ) ) ;
#753 = CARTESIAN_POINT ( 'NONE',  ( 5.507111626606387311, -6.023518551615047123, 898.9422371214559462 ) ) ;
#754 = CARTESIAN_POINT ( 'NONE',  ( 4.671601523310116910, -33.87658578163055978, 920.4931820707685119 ) ) ;
#755 = EDGE_LOOP ( 'NONE', ( #184, #89, #410, #636 ) ) ;
#756 = DIRECTION ( 'NONE',  ( -1.000000000000000000, 0.000000000000000000, 0.000000000000000000 ) ) ;
#757 = CARTESIAN_POINT ( 'NONE',  ( 0.000000000000000000, -35.00000000000000000, 920.4352645838112039 ) ) ;
#758 = ORIENTED_EDGE ( 'NONE', *, *, #578, .F. ) ;
#759 = CARTESIAN_POINT ( 'NONE',  ( -14.22366136344031951, -14.11791176701743922, 898.9422371214552641 ) ) ;
#760 = DIRECTION ( 'NONE',  ( 0.000000000000000000, 0.000000000000000000, -1.000000000000000000 ) ) ;
#761 = CARTESIAN_POINT ( 'NONE',  ( 0.000000000000000000, -32.00014202388430107, 898.9422371214556051 ) ) ;
#762 = ADVANCED_FACE ( 'NONE', ( #638 ), #576, .F. ) ;
#763 = CARTESIAN_POINT ( 'NONE',  ( 6.001094378296354392, -33.77493563388980391, 898.9422371214556051 ) ) ;
#764 = AXIS2_PLACEMENT_3D ( 'NONE', #671, #321, #4 ) ;
#765 = VERTEX_POINT ( 'NONE', #687 ) ;
#766 = CARTESIAN_POINT ( 'NONE',  ( -14.03704300353542500, -15.36222527941453286, 920.8406869925159981 ) ) ;
#767 = CARTESIAN_POINT ( 'NONE',  ( 6.247266942790275834, -6.338343590391279925, 898.9422371214556051 ) ) ;
#768 = CLOSED_SHELL ( 'NONE', ( #762, #700, #575, #450, #652, #517, #112, #226, #174, #487 ) ) ;
#769 = ORIENTED_EDGE ( 'NONE', *, *, #723, .T. ) ;
#770 = CARTESIAN_POINT ( 'NONE',  ( 0.000000000000000000, -6.999857976115701597, 901.9422371214556051 ) ) ;
#771 = PRODUCT_RELATED_PRODUCT_CATEGORY ( 'part', '', ( #20 ) ) ;
#772 = CARTESIAN_POINT ( 'NONE',  ( 4.168693504761822766, -34.41260167594271024, 898.9422371214554914 ) ) ;
#773 = ORIENTED_EDGE ( 'NONE', *, *, #318, .T. ) ;
#774 = LINE ( 'NONE', #770, #190 ) ;
#775 = LINE ( 'NONE', #261, #92 ) ;
#776 = B_SPLINE_CURVE_WITH_KNOTS ( 'NONE', 3,
 ( #612, #310, #448, #12, #263, #753, #767, #629, #260, #181, #314, #510, #178, #681, #819, #501, #438, #686, #708, #579, #338, #521, #21, #784, #719, #151, #602, #230, #109, #539, #167, #198, #393, #721, #637, #340, #332, #25 ),
 .UNSPECIFIED., .F., .F.,
 ( 4, 2, 2, 2, 1, 2, 2, 1, 2, 2, 2, 2, 2, 2, 2, 2, 2, 2, 2, 4 ),
 ( 0.000000000000000000, 0.06250000000000006939, 0.1250000000000001388, 0.1875000000000002220, 0.2187500000000002220, 0.2343750000000001665, 0.2500000000000001110, 0.3125000000000003331, 0.3437500000000003886, 0.3750000000000004441, 0.4375000000000004996, 0.5000000000000005551, 0.5625000000000005551, 0.6250000000000004441, 0.6875000000000004441, 0.7500000000000003331, 0.8125000000000003331, 0.8750000000000003331, 0.9375000000000002220, 1.000000000000000000 ),
 .UNSPECIFIED. ) ;
#777 = DIRECTION ( 'NONE',  ( 0.000000000000000000, 0.000000000000000000, -1.000000000000000000 ) ) ;
#778 = ORIENTED_EDGE ( 'NONE', *, *, #824, .F. ) ;
#779 = VECTOR ( 'NONE', #668, 1000.000000000000000 ) ;
#780 = DIRECTION ( 'NONE',  ( 0.000000000000000000, 0.000000000000000000, -1.000000000000000000 ) ) ;
#781 = EDGE_LOOP ( 'NONE', ( #610, #209, #220, #463 ) ) ;
#782 = VERTEX_POINT ( 'NONE', #698 ) ;
#783 = FACE_OUTER_BOUND ( 'NONE', #781, .T. ) ;
#784 = CARTESIAN_POINT ( 'NONE',  ( 14.98698759100019906, -18.98481030855210960, 898.9422371214554914 ) ) ;
#785 = CARTESIAN_POINT ( 'NONE',  ( -11.38641007909702196, -30.12780757527162834, 898.9422371214550367 ) ) ;
#786 = ORIENTED_EDGE ( 'NONE', *, *, #258, .T. ) ;
#787 = EDGE_CURVE ( 'NONE', #765, #94, #558, .T. ) ;
#788 = B_SPLINE_CURVE_WITH_KNOTS ( 'NONE', 3,
 ( #173, #370, #53, #179 ),
 .UNSPECIFIED., .F., .F.,
 ( 4, 4 ),
 ( 0.000000000000000000, 1.000000000000000000 ),
 .UNSPECIFIED. ) ;
#789 = VECTOR ( 'NONE', #582, 1000.000000000000000 ) ;
#790 = DIRECTION ( 'NONE',  ( -1.000000000000000000, 0.000000000000000000, 0.000000000000000000 ) ) ;
#791 = DIRECTION ( 'NONE',  ( -0.000000000000000000, -0.000000000000000000, 1.000000000000000000 ) ) ;
#792 = SURFACE_STYLE_FILL_AREA ( #528 ) ;
#793 = PLANE ( 'NONE',  #587 ) ;
#794 = DIRECTION ( 'NONE',  ( 1.000000000000000000, 0.000000000000000000, 0.000000000000000000 ) ) ;
#795 = EDGE_CURVE ( 'NONE', #154, #515, #120, .T. ) ;
#796 = DIRECTION ( 'NONE',  ( 0.000000000000000000, 0.000000000000000000, -1.000000000000000000 ) ) ;
#797 = ORIENTED_EDGE ( 'NONE', *, *, #116, .F. ) ;
#798 = AXIS2_PLACEMENT_3D ( 'NONE', #240, #299, #117 ) ;
#799 = CARTESIAN_POINT ( 'NONE',  ( 0.000000000000000000, -32.00014202388430107, 901.9422371214556051 ) ) ;
#800 = CARTESIAN_POINT ( 'NONE',  ( 1.968970960349521793, -34.99999999999999289, 898.9422371214552641 ) ) ;
#801 = B_SPLINE_CURVE_WITH_KNOTS ( 'NONE', 3,
 ( #200, #639, #763, #14, #17, #772, #135, #126, #68 ),
 .UNSPECIFIED., .F., .F.,
 ( 4, 1, 2, 2, 4 ),
 ( 0.000000000000000000, 0.2499999999999998890, 0.3749999999999996669, 0.4999999999999994449, 1.000000000000000000 ),
 .UNSPECIFIED. ) ;
#802 = CARTESIAN_POINT ( 'NONE',  ( 0.000000000000000000, -7.999857976115701597, 901.9422371214556051 ) ) ;
#803 = CARTESIAN_POINT ( 'NONE',  ( -7.439560805254446407, -33.02503764990401436, 898.9422371214552641 ) ) ;
#804 = DIRECTION ( 'NONE',  ( -0.000000000000000000, -0.000000000000000000, 1.000000000000000000 ) ) ;
#805 = CARTESIAN_POINT ( 'NONE',  ( 5.882088232982356502, -5.776338636559586348, 898.9422371214557188 ) ) ;
#806 = CARTESIAN_POINT ( 'NONE',  ( 0.000000000000000000, -20.33333333333333215, 928.9422371214551504 ) ) ;
#807 = VERTEX_POINT ( 'NONE', #63 ) ;
#808 = APPLICATION_CONTEXT ( 'automotive_design' ) ;
#809 = CARTESIAN_POINT ( 'NONE',  ( -3.540957044339629434, -22.15791116044158215, 929.0166221637277886 ) ) ;
#810 = CARTESIAN_POINT ( 'NONE',  ( 0.000000000000000000, -33.00014202388430107, 901.9422371214556051 ) ) ;
#811 = DIRECTION ( 'NONE',  ( -1.000000000000000000, 0.000000000000000000, 0.000000000000000000 ) ) ;
#812 = VERTEX_POINT ( 'NONE', #505 ) ;
#813 = EDGE_CURVE ( 'NONE', #171, #293, #775, .T. ) ;
#814 = CIRCLE ( 'NONE', #453, 1.000000000000000000 ) ;
#815 = CARTESIAN_POINT ( 'NONE',  ( 14.22366136344031951, -14.11791176701743922, 898.9422371214552641 ) ) ;
#816 = CARTESIAN_POINT ( 'NONE',  ( 0.1305346554128009595, -19.00000000000000355, 928.9422371214551504 ) ) ;
#817 = VERTEX_POINT ( 'NONE', #138 ) ;
#818 = CARTESIAN_POINT ( 'NONE',  ( -1.968970960349521793, -34.99999999999999289, 898.9422371214552641 ) ) ;
#819 = CARTESIAN_POINT ( 'NONE',  ( 11.35826298291130598, -10.19302153028927904, 898.9422371214556051 ) ) ;
#820 = CARTESIAN_POINT ( 'NONE',  ( 3.540957044339629434, -22.15791116044158215, 929.0166221637277886 ) ) ;
#821 = DIRECTION ( 'NONE',  ( 0.000000000000000000, 0.000000000000000000, -1.000000000000000000 ) ) ;
#822 = ORIENTED_EDGE ( 'NONE', *, *, #824, .T. ) ;
#823 = CARTESIAN_POINT ( 'NONE',  ( -3.052785243878253230, -16.14730447975924221, 928.9847428598977785 ) ) ;
#824 = EDGE_CURVE ( 'NONE', #817, #40, #105, .T. ) ;
#825 = PRODUCT_CONTEXT ( 'NONE', #808, 'mechanical' ) ;
ENDSEC;
END-ISO-10303-21;
